<svg xmlns="http://www.w3.org/2000/svg" version="1.1" xmlns:xlink="http://www.w3.org/1999/xlink" width="512" height="512" x="0" y="0" viewBox="0 0 512 512" style="enable-background:new 0 0 512 512" xml:space="preserve" class=""><g><g data-name="/ FLAT"><rect width="192" height="192" x="24" y="264" fill="#00b378" rx="32" opacity="1" data-original="#00b378"></rect><path fill="#59cea7" d="M67.578 333.789A8 8 0 0 0 56 340.944v38.112a8 8 0 0 0 11.578 7.155L88 376v-32z" opacity="1" data-original="#59cea7"></path><rect width="96" height="64" x="88" y="328" fill="#bdecdc" rx="16" opacity="1" data-original="#bdecdc"></rect><path fill="#a1c9bc" d="M120 392h48a16 16 0 0 0 16-16v-32a15.94 15.94 0 0 0-.911-5.282A64.005 64.005 0 0 1 120 392z" opacity="1" data-original="#a1c9bc"></path><rect width="176" height="176" x="280" y="248" fill="#5ca4cc" rx="32" opacity="1" data-original="#5ca4cc"></rect><path fill="#0071af" d="M400 320h-64a16 16 0 0 0-16 16v24a16 16 0 0 0 16 16h56l22.445 14.964a1 1 0 0 0 1.555-.832V336a16 16 0 0 0-16-16z" opacity="1" data-original="#0071af"></path><rect width="208" height="208" x="64" y="24" fill="#0071af" rx="32" opacity="1" data-original="#0071af"></rect><rect width="96" height="128" x="120" y="64" fill="#cbe2ef" rx="16" opacity="1" data-original="#cbe2ef"></rect><path fill="#5ca4cc" d="M144 88h48v16h-48zM144 120h48v16h-48zM144 152h48v16h-48z" opacity="1" data-original="#5ca4cc"></path><rect width="240" height="240" x="248" y="48" fill="#ea8383" rx="32" opacity="1" data-original="#ea8383" class=""></rect><rect width="112" height="112" x="344" y="96" fill="#f9dbdb" rx="16" opacity="1" data-original="#f9dbdb" class=""></rect><path fill="#f0a5a5" d="M344 136h112v-24a16 16 0 0 0-16-16h-80a16 16 0 0 0-16 16z" opacity="1" data-original="#f0a5a5" class=""></path><path fill="#f9dbdb" d="M416 72h16v40h-16zM368 72h16v40h-16z" opacity="1" data-original="#f9dbdb" class=""></path><path fill="#f0a5a5" d="M408 160h16v16h-16zM376 160h16v16h-16z" opacity="1" data-original="#f0a5a5" class=""></path><path fill="#dfdfdf" d="M320.075 328h-128.15a16 16 0 0 0-16 16L176 496h160l.075-152a16 16 0 0 0-16-16z" opacity="1" data-original="#dfdfdf"></path><g fill="#bebebe"><path d="m208 328 4.97 19.88A16 16 0 0 0 228.492 360h55.016a16 16 0 0 0 15.522-12.12L304 328zM200 480h16v16h-16zM200 440h16v16h-16zM232 440h16v16h-16zM264 440h16v16h-16zM200 400h16v16h-16zM232 400h16v16h-16zM264 400h16v16h-16zM296 400h16v16h-16z" fill="#bebebe" opacity="1" data-original="#bebebe"></path><path d="M335.889 341.682A159.995 159.995 0 0 1 176 496h160V342.504c-.026-.278-.071-.549-.111-.822z" fill="#bebebe" opacity="1" data-original="#bebebe"></path></g><path fill="#a2a2a2" d="M200 494.21V496h16v-5.05a159.128 159.128 0 0 1-16 3.26zM264 480h16v16h-16zM296 480h16v16h-16z" opacity="1" data-original="#a2a2a2"></path><path fill="#bebebe" d="M232 480h16v16h-16z" opacity="1" data-original="#bebebe"></path><path fill="#a2a2a2" d="M245.797 480q-6.73 3.268-13.797 5.913V496h16v-16zM296 440h16v16h-16z" opacity="1" data-original="#a2a2a2"></path><path fill="#bebebe" d="M296 440v1.808c.53-.601 1.063-1.2 1.584-1.808z" opacity="1" data-original="#bebebe"></path><path fill="#adc1cc" d="M131.405 191.323A15.986 15.986 0 0 0 136 192h64a16 16 0 0 0 16-16V96a96.011 96.011 0 0 1-84.595 95.323z" opacity="1" data-original="#adc1cc"></path><path fill="#d4bbbb" d="M355.686 207.395A15.975 15.975 0 0 0 360 208h80a16 16 0 0 0 16-16v-80a15.975 15.975 0 0 0-.605-4.314 112.036 112.036 0 0 1-99.709 99.709z" opacity="1" data-original="#d4bbbb" class=""></path><path fill="#006095" d="M389.237 376H392l22.445 14.963a1 1 0 0 0 1.555-.832V336a15.957 15.957 0 0 0-.827-5.053A71.915 71.915 0 0 1 389.237 376z" opacity="1" data-original="#006095"></path><path fill="#4e8cae" d="M192 168v-8.523a96.558 96.558 0 0 1-8.538 8.523z" opacity="1" data-original="#4e8cae"></path><path fill="#cc8d8d" d="M455.93 110.616a15.843 15.843 0 0 0-.062-.578c-.028-.223-.065-.444-.102-.665a16.73 16.73 0 0 0-.371-1.687A111.325 111.325 0 0 1 448.64 136H456v-24c0-.467-.03-.927-.07-1.384zM424 176v-1.646q-.814.832-1.646 1.646z" opacity="1" data-original="#cc8d8d"></path><circle cx="328" cy="208" r="48" fill="#f0a5a5" opacity="1" data-original="#f0a5a5" class=""></circle><path fill="#f9dbdb" d="M338.343 229.657 320 211.313V184h16v20.687l13.657 13.656z" opacity="1" data-original="#f9dbdb" class=""></path><path fill="#cc8d8d" d="M308.286 251.762a47.995 47.995 0 0 0 63.476-63.476 96.216 96.216 0 0 1-63.476 63.476z" opacity="1" data-original="#cc8d8d"></path></g></g></svg>