<svg xmlns="http://www.w3.org/2000/svg" version="1.1" xmlns:xlink="http://www.w3.org/1999/xlink" width="512" height="512" x="0" y="0" viewBox="0 0 512 512" style="enable-background:new 0 0 512 512" xml:space="preserve" class=""><g><path fill="#f2d6a2" d="m376.829 132.763 56.628-56.599c24.416-24.416-12.516-61.347-36.931-36.931L376.829 58.93v-6.888c0-21.455-17.557-39.042-39.042-39.042h-154.76c-21.485 0-39.042 17.586-39.042 39.042v114.275c-6.545-6.167-14.367-10.52-22.95-11.776-3.781-.557-7.269.44-10.2 2.96-2.902 2.491-4.396 5.804-4.396 9.643v87.727c-33.913 76.266-21.954 118.825 6.126 171.379l-42.031 72.749h187.559l11.46-28.988c30.747-3.752 57.244-19.169 68.235-56.306 21.485 0 39.042-17.586 39.042-39.042v-20.147c5.796-.218 11.774-2.618 17.147-7.991l22.686-22.686c21.879-21.879-5.502-53.774-28.996-42.601 2.161-1.224 4.279-2.822 6.31-4.853l22.686-22.686c22.009-22.009-5.829-54.154-29.415-42.398 2.306-1.252 4.567-2.924 6.728-5.085l13.688-13.688c22.454-22.454-6.951-55.463-30.835-41.633v-18.131z" opacity="1" data-original="#f2d6a2"></path><path fill="#c8effe" d="m357.074 309.595 3.755-3.755v-26.533c-11.856-8.539-17.446-26.162-3.755-39.853l3.755-3.755v-26.55c-11.856-8.531-17.446-26.145-3.755-39.835l3.755-3.763V52.042c0-12.706-10.336-23.042-23.042-23.042h-154.76c-12.706 0-23.042 10.336-23.042 23.042v138.903c2.455 6.663 3.814 13.598 3.814 20.225v75.827c43.381 29.813 64.227 69.17 66.861 110.71h107.126c12.706 0 23.042-10.336 23.042-23.042v-25.217c-11.856-8.539-17.446-26.162-3.755-39.853z" opacity="1" data-original="#c8effe"></path><g fill="#8379c1"><path d="M376.829 284.377c-5.773.217-11.365-1.732-16-5.07v26.533l16-16zM360.829 209.149v26.55l16-16v-5.488c-5.773.22-11.365-1.726-16-5.061zM360.829 52.042V165.55l9.904-9.925c1.964-1.962 4.01-3.523 6.096-4.731V52.042c0-21.455-17.557-39.042-39.042-39.042h-154.76c-21.485 0-39.042 17.586-39.042 39.042v114.275c7.036 6.63 12.585 15.361 16 24.628V52.042c0-12.706 10.336-23.042 23.042-23.042h154.76c12.706 0 23.042 10.336 23.042 23.042zM360.829 349.447v25.217c0 12.706-10.336 23.042-23.042 23.042H230.661a145.87 145.87 0 0 1 .143 16h106.984c21.485 0 39.042-17.586 39.042-39.042v-20.147c-5.773.217-11.365-1.732-16-5.07z" fill="#8379c1" opacity="1" data-original="#8379c1"></path></g><g fill="#e5c188"><path d="M141.799 211.169v75.827c45.838 31.501 66.533 73.657 67.15 117.785.069 4.964 4.174 8.925 9.138 8.925h12.716c2.198-47.337-18.085-93.091-67.004-126.71v-75.827c0-24.416-18.319-53.052-42.764-56.628-3.781-.557-7.269.44-10.2 2.96-.211.181-.398.375-.594.565 18.628 9.109 31.558 32.592 31.558 53.103zM315.787 413.706c-10.991 37.137-37.488 52.554-68.235 56.306L236.092 499h22l11.46-28.988c30.747-3.752 57.244-19.169 68.235-56.306zM416.662 300.84l-22.686 22.686c-14.964 14.964-34.615 6.882-41.968-7.237-12.936 23.753 19.703 52.502 41.968 30.237l22.686-22.686c9.45-9.45 9.706-20.769 5.058-29.68-1.248 2.29-2.911 4.534-5.058 6.68zM416.662 230.699l-22.686 22.686c-14.964 14.964-34.615 6.882-41.968-7.237-12.936 23.753 19.703 52.502 41.968 30.237l22.686-22.686c9.45-9.45 9.706-20.769 5.058-29.68-1.248 2.29-2.911 4.534-5.058 6.68zM407.664 169.528l-13.688 13.688c-14.963 14.963-34.611 6.895-41.966-7.213-12.943 23.75 19.699 52.479 41.966 30.213l13.688-13.688c9.453-9.453 9.71-20.775 5.063-29.687-1.249 2.292-2.914 4.539-5.063 6.687zM433.457 53.164l-56.628 56.599v23l56.628-56.599c9.448-9.448 9.706-20.769 5.061-29.686-1.249 2.292-2.913 4.537-5.061 6.686z" fill="#e5c188" opacity="1" data-original="#e5c188"></path></g><path fill="#05e39c" d="M198.181 76.252h29.106c8.148 0 14.802 6.654 14.802 14.802v29.135c0 8.148-6.654 14.802-14.802 14.802h-29.106c-8.148 0-14.831-6.654-14.831-14.802V91.054c0-8.148 6.683-14.802 14.831-14.802zM293.528 76.252h29.135c8.148 0 14.802 6.654 14.802 14.802v29.135c0 8.148-6.654 14.802-14.802 14.802h-29.135c-8.148 0-14.802-6.654-14.802-14.802V91.054c0-8.148 6.653-14.802 14.802-14.802zM198.181 171.278h29.106c8.148 0 14.802 6.654 14.802 14.802v29.135c0 8.148-6.654 14.802-14.802 14.802h-29.106c-8.148 0-14.831-6.654-14.831-14.802V186.08c0-8.148 6.683-14.802 14.831-14.802zM293.528 171.278h29.135c8.148 0 14.802 6.654 14.802 14.802v29.135c0 8.148-6.654 14.802-14.802 14.802h-29.135c-8.148 0-14.802-6.654-14.802-14.802V186.08c0-8.148 6.653-14.802 14.802-14.802z" opacity="1" data-original="#05e39c"></path><g fill="#07d188"><path d="M227.286 171.278h-14c8.148 0 14.802 6.654 14.802 14.802v29.135c0 8.148-6.654 14.802-14.802 14.802h14c8.148 0 14.802-6.654 14.802-14.802V186.08c0-8.148-6.654-14.802-14.802-14.802zM227.286 76.252h-14c8.148 0 14.802 6.654 14.802 14.802v29.135c0 8.148-6.654 14.802-14.802 14.802h14c8.148 0 14.802-6.654 14.802-14.802V91.054c0-8.148-6.654-14.802-14.802-14.802zM322.663 171.278h-14c8.148 0 14.802 6.654 14.802 14.802v29.135c0 8.148-6.654 14.802-14.802 14.802h14c8.148 0 14.802-6.654 14.802-14.802V186.08c0-8.148-6.654-14.802-14.802-14.802zM322.663 76.252h-14c8.148 0 14.802 6.654 14.802 14.802v29.135c0 8.148-6.654 14.802-14.802 14.802h14c8.148 0 14.802-6.654 14.802-14.802V91.054c0-8.148-6.654-14.802-14.802-14.802z" fill="#07d188" opacity="1" data-original="#07d188"></path></g><path fill="#b6e2ef" d="M269.318 379.323h-17.821a8 8 0 0 1 0-16h17.821a8 8 0 0 1 0 16zM357.074 309.595l3.755-3.755v-26.533c-11.856-8.539-17.446-26.162-3.755-39.853l3.755-3.755v-26.55c-11.856-8.531-17.446-26.145-3.755-39.835l3.755-3.763V52.042c0-12.203-9.536-22.215-21.547-22.988 4.738 6.463 7.547 14.414 7.547 22.988v322.622c0 8.574-2.81 16.525-7.547 22.988 12.011-.773 21.547-10.785 21.547-22.988v-25.217c-11.856-8.539-17.446-26.162-3.755-39.853z" opacity="1" data-original="#b6e2ef"></path><g fill="#7671bf"><path d="M360.829 209.149v26.55l16-16v-5.488c-5.773.22-11.365-1.726-16-5.061zM376.829 284.377c-5.773.217-11.365-1.732-16-5.07v26.533l16-16zM339.282 29.054c12.011.773 21.547 10.785 21.547 22.988V165.55l9.904-9.925c1.964-1.962 4.01-3.523 6.096-4.731V52.042c0-21.455-17.557-39.042-39.042-39.042h-30c12.899 0 24.376 6.344 31.494 16.054zM360.829 349.447v25.217c0 12.203-9.536 22.215-21.547 22.988-7.118 9.71-18.595 16.054-31.495 16.054h30c21.485 0 39.042-17.586 39.042-39.042v-20.147c-5.773.217-11.365-1.732-16-5.07z" fill="#7671bf" opacity="1" data-original="#7671bf"></path></g></g></svg>