<svg xmlns="http://www.w3.org/2000/svg" version="1.1" xmlns:xlink="http://www.w3.org/1999/xlink" width="512" height="512" x="0" y="0" viewBox="0 0 512 512" style="enable-background:new 0 0 512 512" xml:space="preserve" class=""><g><path fill="#f0d289" d="M256 116.648 67.801 256l172.846 164.898h30.723L444.223 256z" opacity="1" data-original="#f0d289"></path><path fill="#8ed275" d="M444.223 256h-66.2v25.292c0 13.944-11.308 25.244-25.252 25.244s-25.252-11.3-25.252-25.244V256H256v-48.425h25.292c13.944 0 25.244-11.308 25.244-25.252s-11.3-25.252-25.244-25.252H256v-40.422l.008.008C358.457 37.031 491.446 130.951 444.223 256z" opacity="1" data-original="#8ed275"></path><path fill="#fded80" d="M444.223 256c-.008.032-.024.056-.032.087-26.741 70.731-104.066 127.98-172.821 164.81a32.537 32.537 0 0 1-15.37 3.87v-62.672h-25.292c-13.944 0-25.244-11.308-25.244-25.252s11.3-25.244 25.244-25.244H256V256h71.519v25.292c0 13.944 11.308 25.244 25.252 25.244s25.252-11.3 25.252-25.244V256z" opacity="1" data-original="#fded80"></path><path fill="#71daf9" d="M205.464 336.844c0 13.944 11.3 25.252 25.244 25.252H256v62.672a32.491 32.491 0 0 1-15.353-3.87c-68.071-36.464-145.945-93.745-172.814-164.81-.008-.032-.024-.056-.032-.087h66.176v-25.292c0-13.944 11.308-25.244 25.252-25.244s25.244 11.3 25.244 25.244V256H256v55.6h-25.292c-13.944 0-25.244 11.3-25.244 25.244z" opacity="1" data-original="#71daf9"></path><path fill="#f37a86" d="M306.536 182.323c0 13.944-11.3 25.252-25.244 25.252H256V256h-71.527v-25.292c0-13.944-11.3-25.244-25.244-25.244s-25.252 11.3-25.252 25.244V256H67.801C20.451 130.521 154.021 37.405 256 116.648v40.422h25.292c13.944.001 25.244 11.309 25.244 25.253z" opacity="1" data-original="#f37a86"></path><path fill="#fbcc83" d="M309.166 387.504c-18.419 0-36.246-2.524-53.166-7.229v44.493a32.54 32.54 0 0 0 15.37-3.87c18.623-9.976 37.873-21.452 56.578-34.286-6.184.581-12.446.892-18.782.892z" opacity="1" data-original="#fbcc83"></path><path fill="#d89b80" d="M456.205 390.725h-15.496v-22.688c0-11.865-9.619-21.484-21.484-21.484-11.865 0-21.484 9.619-21.484 21.484 0-11.865-9.619-21.484-21.484-21.484-11.865 0-21.484 9.619-21.484 21.484 0-11.865-9.619-21.484-21.484-21.484-11.865 0-21.484 9.619-21.484 21.484V512h128.903v-78.307h15.496c11.865 0 21.484-9.619 21.484-21.484.001-11.865-9.618-21.484-21.483-21.484z" opacity="1" data-original="#d89b80"></path><path fill="#dd5c70" d="M111.122 189.459c0-34.604 8.884-67.129 24.482-95.435C77.681 114.422 38.796 179.136 67.801 256h54.791c-7.419-20.798-11.47-43.195-11.47-66.541z" opacity="1" data-original="#dd5c70"></path><path fill="#fddacc" d="M114.258 143.963c0 11.865-9.619 21.484-21.484 21.484-11.865 0-21.484-9.619-21.484-21.484V0h128.903v143.963c0 11.865-9.619 21.484-21.484 21.484-11.865 0-21.484-9.619-21.484-21.484 0 11.865-9.619 21.484-21.484 21.484-11.864 0-21.483-9.619-21.483-21.484z" opacity="1" data-original="#fddacc"></path><path fill="#30c3ef" d="M122.592 256H67.801c.008.032.024.056.032.088 26.869 71.065 104.743 128.346 172.814 164.81a32.497 32.497 0 0 0 15.353 3.87v-44.493C193.891 363.006 144.076 316.233 122.592 256z" opacity="1" data-original="#30c3ef"></path><path fill="#fdc8bb" d="M105.971 63.435c0-22.819 5.43-44.368 15.058-63.435H71.29v78.307H55.795c-11.865 0-21.484 9.618-21.484 21.484 0 11.865 9.619 21.484 21.484 21.484H71.29v22.688c0 11.865 9.619 21.484 21.484 21.484 11.865 0 21.484-9.619 21.484-21.484 0 11.865 9.619 21.484 21.484 21.484 3.98 0 7.694-1.102 10.891-2.988-25.138-25.453-40.662-60.424-40.662-99.024z" opacity="1" data-original="#fdc8bb"></path><path fill="#c5836a" d="M332.055 369.504c0-7.822.713-15.478 2.068-22.909-.279-.011-.552-.042-.833-.042-11.865 0-21.484 9.619-21.484 21.484V512h128.903v-16.959c-61.435-8.822-108.654-61.661-108.654-125.537z" opacity="1" data-original="#c5836a"></path></g></svg>