<svg xmlns="http://www.w3.org/2000/svg" version="1.1" xmlns:xlink="http://www.w3.org/1999/xlink" width="512" height="512" x="0" y="0" viewBox="0 0 512 512" style="enable-background:new 0 0 512 512" xml:space="preserve" fill-rule="evenodd" class=""><g><path fill="#47a9df" d="M298.817 269.927a10.955 10.955 0 0 1 3.877-2.558l23.093-8.965c7.931 2.251 15.863 2.31 23.794 0l23.093 8.965a10.986 10.986 0 0 1 7.011 10.242v17.312a49.182 49.182 0 0 1-19.736 18.496c-6.679 3.425-14.248 5.358-22.265 5.358s-15.586-1.933-22.265-5.358a49.057 49.057 0 0 1-10.212-6.996 59.974 59.974 0 0 0 1.937-3.027v-21.081a13.379 13.379 0 0 0-8.327-12.388z" opacity="1" data-original="#47a9df"></path><path fill="#f04f49" d="m213.183 269.927.21-.084 28.12-10.916c9.658 2.741 19.316 2.813 28.974 0l28.12 10.916.21.084a13.379 13.379 0 0 1 8.327 12.388v21.081a59.892 59.892 0 0 1-24.032 22.522c-8.134 4.171-17.35 6.525-27.112 6.525s-18.978-2.354-27.112-6.525a59.892 59.892 0 0 1-24.032-22.522v-21.081a13.379 13.379 0 0 1 8.327-12.388z" opacity="1" data-original="#f04f49"></path><path fill="#8ba4ab" d="M152.051 313.419a49.182 49.182 0 0 1-19.736-18.496v-17.312c0-4.534 2.785-8.602 7.011-10.242l23.093-8.965c7.931 2.251 15.863 2.31 23.794 0l23.093 8.965a10.955 10.955 0 0 1 3.877 2.558 13.379 13.379 0 0 0-8.327 12.388v21.081a59.974 59.974 0 0 0 1.937 3.027 49.057 49.057 0 0 1-10.212 6.996c-6.679 3.425-14.248 5.358-22.265 5.358s-15.586-1.933-22.265-5.358z" opacity="1" data-original="#8ba4ab"></path><path fill="#f7987a" d="M256.028 179.557c17.168 0 31.106 13.938 31.106 31.106s-13.938 37.258-31.106 37.258-31.106-20.09-31.106-37.258 13.938-31.106 31.106-31.106zM337.707 193.223c14.099 0 25.545 11.446 25.545 25.545s-11.446 30.598-25.545 30.598-25.545-16.499-25.545-30.598 11.446-25.545 25.545-25.545z" opacity="1" data-original="#f7987a"></path><path fill="#f5af1a" d="M455.883 190.858c-.002-20.914-.011-55.021-.014-74.497-.004-3.942 1.622-7.726 4.505-10.523 2.891-2.79 6.813-4.362 10.899-4.362 7.874.004 17.423 0 25.293-.003 4.088-.002 8.008 1.564 10.901 4.356 2.886 2.793 4.512 6.577 4.514 10.523.008 20.486.016 57.148.019 77.634.005 3.946-1.622 7.731-4.51 10.523-2.891 2.791-6.813 4.363-10.894 4.363-7.877 0-17.426.004-25.298.003-4.081 0-8.006-1.566-10.895-4.354-2.89-2.791-4.518-6.575-4.52-10.526v-3.137z" opacity="1" data-original="#f5af1a"></path><path fill="#8ba4ab" d="M400.806 448.998c4.01.055 7.855 1.611 10.696 4.358 2.895 2.791 4.521 6.58 4.518 10.526.001 7.596.003 16.817.008 24.422-.005 3.947-1.622 7.731-4.515 10.526-2.891 2.787-6.808 4.359-10.899 4.355-21.206.012-59.178.02-80.389.023-4.09-.003-8.01-1.566-10.901-4.358-2.894-2.792-4.513-6.571-4.518-10.525-.003-7.598-.003-16.819-.007-24.424.004-3.945 1.625-7.732 4.512-10.518 2.892-2.795 6.815-4.367 10.901-4.364h3.248a189921.397 189921.397 0 0 0 77.346-.021z" opacity="1" data-original="#8ba4ab"></path><path fill="#47a9df" d="M56.132 395.636c.002 3.954-1.62 7.738-4.509 10.526-2.89 2.795-6.81 4.358-10.898 4.361l-25.291.009c-4.088-.004-8.006-1.567-10.901-4.359-2.889-2.792-4.512-6.577-4.516-10.525C.014 375.17.003 338.499 0 318.02c-.002-3.951 1.623-7.738 4.511-10.524 2.89-2.795 6.81-4.359 10.896-4.364 7.872-.003 17.423-.005 25.293-.006 4.088.004 8.009 1.564 10.899 4.356 2.893 2.794 4.516 6.581 4.516 10.526l.017 77.628z" opacity="1" data-original="#47a9df"></path><path fill="#21bbae" d="m188.54 62.985-77.146.013c-4.086.004-8.006-1.565-10.897-4.349-2.89-2.793-4.515-6.58-4.518-10.526l-.003-24.424c-.001-3.946 1.62-7.731 4.51-10.521 2.891-2.791 6.808-4.364 10.897-4.364 21.213-.006 59.183-.011 80.395-.022 4.089-.001 8.008 1.574 10.899 4.358 2.892 2.792 4.516 6.579 4.516 10.525l.004 24.424c.004 3.945-1.62 7.731-4.511 10.523-2.888 2.79-6.806 4.362-10.894 4.362l-3.252.001z" opacity="1" data-original="#21bbae"></path><path fill="#f7987a" d="M174.339 193.223c14.099 0 25.545 11.446 25.545 25.545s-11.446 30.598-25.545 30.598-25.545-16.499-25.545-30.598 11.446-25.545 25.545-25.545zM337.538 111.683l-28.614-17.072-79.726.02c-33.529-1.008-30.144-29.914-.01-29.597l92.922-6.041s49.024-3.021 103.275 41.11c0 0 12.502 13.452 30.484 16.241v.017c.003 19.478.012 53.587.014 74.5-16.256 2.444-65.918 7.422-92.209-17.508l-30.431-31.279c-15.912-12.521-8.987-28.519 4.295-30.391z" opacity="1" data-original="#f7987a"></path><path fill="#fbbd9c" d="M323.461 449.019c-2.531-15.698-7.69-63.658 18.129-89.043l32.39-29.385c12.967-15.363 29.534-8.682 31.477 4.147l17.672-27.631-.016-76.988c1.042-32.373 30.979-29.11 30.65-.006l6.256 89.729s3.124 47.338-42.574 99.726c0 0-13.748 12.064-16.639 29.43l-.198-.002c-20.169.012-55.49.021-77.147.023zM56.116 321.142c16.254-2.442 65.919-7.427 92.208 17.51l30.433 31.277c15.908 12.523 8.988 28.519-4.294 30.394l28.61 17.066 79.731-.015c33.525 1.006 30.144 29.915.005 29.592l-92.92 6.047s-49.021 3.016-103.272-41.116c0 0-12.505-13.281-30.486-16.065l.001-.196-.016-74.494z" opacity="1" data-original="#fbbd9c"></path><path fill="#f7987a" d="m106.546 177.265-17.678 27.627.019 76.993c-1.039 32.374-30.98 29.104-30.648.006l-6.255-89.73s-3.127-47.337 42.571-99.726c0 0 13.758-12.072 16.646-29.438l.193.001 77.147-.013c2.527 15.699 7.688 63.656-18.132 89.041l-32.39 29.385c-12.966 15.361-29.532 8.679-31.473-4.146z" opacity="1" data-original="#f7987a"></path><path fill="#58caed" d="m43.934 406.018-.01-43.363c0-2.851-1.184-5.584-3.275-7.603-2.141-2.069-5.052-3.212-8.08-3.216-7.868.002-17.415.003-25.285.006a11.912 11.912 0 0 0-3.213.444l-.008-34.267c-.001-2.854 1.183-5.586 3.269-7.598l.004-.004c2.141-2.07 5.049-3.218 8.075-3.222 7.87-.003 17.417-.004 25.285-.006 3.028.004 5.939 1.148 8.08 3.216 2.09 2.019 3.275 4.752 3.275 7.604l.018 77.629c.001 2.856-1.181 5.586-3.268 7.6l-.003.004a11.443 11.443 0 0 1-4.864 2.776z" opacity="1" data-original="#58caed"></path><path fill="#fdd4bf" d="M300.995 436.498c-23.511 1.761-87.946 6.047-119.588 2.753-46.695-4.859-70.837-28.824-89.949-47.446-16.408-15.986-25.976-35.913-31.274-50.668l-.004-16.46c10.62-1.38 29.563-2.896 48.32.34 13.541 2.336 27.023 7.132 36.955 16.514.016.015 30.39 31.232 30.39 31.232.125.128.258.248.399.359 5.146 4.051 7.546 8.427 7.637 12.467.122 5.474-4.161 9.888-9.985 10.71-3.494.49-7.511-.277-11.633-2.651-.004-.003-37.313-25.717-38.659-23.923-1.345 1.794 33.967 30.563 33.967 30.563.122.092.249.176.38.253 5.458 3.209 10.831 4.314 15.591 3.964l27.45 16.374a4.058 4.058 0 0 0 2.082.574l79.666-.015c7.303.226 12.635 1.836 16.061 4.32 2.608 1.89 3.963 4.248 3.823 6.676-.082 1.415-.654 2.796-1.629 4.064z" opacity="1" data-original="#fdd4bf"></path><path fill="#aabbc2" d="M368.753 499.134c.595-1.331.912-2.776.914-4.254-.004-7.604-.006-16.823-.007-24.418v-.004c.002-2.85-1.185-5.582-3.276-7.598l-.003-.003c-2.139-2.068-5.051-3.213-8.074-3.218-12.606.007-31.127.014-48.532.018a10.772 10.772 0 0 1 2.358-3.349l.003-.003c2.14-2.07 5.048-3.225 8.073-3.223h.003c21.208-.001 59.177-.01 80.392-.022 3.023.005 5.935 1.149 8.074 3.217l.003.003c2.091 2.017 3.278 4.748 3.275 7.598v.004c.002 7.596.004 16.814.008 24.418-.003 2.854-1.182 5.585-3.273 7.606-2.14 2.063-5.043 3.219-8.072 3.215h-.007c-8.606.005-19.972.009-31.859.013z" opacity="1" data-original="#aabbc2"></path><path fill="#fdd4bf" d="M364.682 444.947c-22.744-8.409-21.949-25.336-21.949-48.207 0-26.893 33.612-60.376 44.543-70.554a12.853 12.853 0 0 1 2.911-.404c5.691-.119 10.396 3.917 11.252 9.563.497 3.301-.301 7.096-2.703 10.994-.002.003-26.735 36.128-24.988 37.534s31.471-32.627 31.471-32.627c.098-.122.19-.25.273-.382 3.334-5.297 4.495-10.516 4.159-15.142l16.901-26.425a4.058 4.058 0 0 0 .64-2.19l-.015-76.92c.233-6.965 1.878-12.057 4.419-15.325 2.01-2.585 4.556-3.881 7.138-3.742 6.051.325 11.097 7.32 10.966 18.947-.001.11.002.219.009.329l6.256 89.716c.021.352 2.635 45.982-41.429 96.609-1.753 1.615-13.171 12.603-17.035 28.213-9.194.005-20.874.009-32.819.013z" opacity="1" data-original="#fdd4bf"></path><path fill="#eddf53" d="m502.445 203.255-.01-37.264c-.002-2.852-1.189-5.582-3.275-7.602-2.142-2.067-5.049-3.216-8.075-3.215-7.871.003-17.421.008-25.295.003-2.075 0-4.094.543-5.849 1.551-.003-14.799-.007-29.755-.008-40.367v-.005c-.004-2.848 1.185-5.576 3.267-7.597 2.141-2.065 5.048-3.22 8.073-3.22 7.874.005 17.424 0 25.295-.003 3.026-.001 5.932 1.149 8.075 3.215 2.086 2.02 3.273 4.75 3.275 7.603.007 20.485.015 57.147.018 77.633l.001.004c.003 2.85-1.184 5.579-3.27 7.596a11.358 11.358 0 0 1-2.222 1.668z" opacity="1" data-original="#eddf53"></path><path fill="#fbbd9c" d="M451.254 119.565c-13.068 52.041-35.72 62.828-67.306 47.619-23.109-11.126-44.484-31.02-55.716-42.517.716-4.644 4.681-8.227 9.867-8.959l.009-.002c3.494-.495 7.512.28 11.635 2.651.003.003 37.308 25.716 38.654 23.922s-33.964-30.563-33.964-30.563a4.068 4.068 0 0 0-.381-.254 32.259 32.259 0 0 0-2.796-1.466c-30.067-25.574-39.737-26.109-39.737-26.109-20.184-5.483-95.728 3.893-95.728 3.893a16.94 16.94 0 0 1-2.592-1.533c-2.608-1.891-3.963-4.249-3.823-6.677.113-1.962 1.168-3.859 2.934-5.478 3.378-3.098 9.106-5.076 16.835-4.995a3.92 3.92 0 0 0 .307-.008l92.91-6.041c.346-.019 47.725-2.59 100.268 40.052 1.674 1.716 12.795 12.625 28.624 16.465z" opacity="1" data-original="#fbbd9c"></path><path fill="#96cd7d" d="m100.399 50.801 42.1-.007c3.027 0 5.933-1.156 8.071-3.222 2.089-2.017 3.273-4.747 3.271-7.597v-.003l-.005-24.424c0-.912-.121-1.812-.354-2.68 14.155-.003 28.145-.007 38.297-.012 3.03-.001 5.935 1.158 8.077 3.22 2.09 2.017 3.273 4.749 3.273 7.599l.005 24.424v.003c.002 2.85-1.182 5.58-3.271 7.597-2.138 2.066-5.044 3.222-8.071 3.222l-80.398.013h-.004c-3.025.004-5.931-1.149-8.072-3.209a10.75 10.75 0 0 1-2.919-4.924z" opacity="1" data-original="#96cd7d"></path><g fill="#fbbd9c"><path d="M70.786 300.355c-8.364-46.295-5.49-100.921-3.825-116.384 0 0 3.816-38.841 33.079-74.186 26.212-31.661 75.561-40.968 85.034-42.496 1.411 10.288 2.91 28.336-.396 46.21-2.411 13.029-7.366 26.002-17.046 35.559l-32.343 29.343a3.935 3.935 0 0 0-.375.389c-4.245 5.029-8.868 7.34-13.101 7.429-5.691.119-10.395-3.917-11.249-9.562-.5-3.304.297-7.095 2.702-10.992.002-.003 26.734-36.134 24.986-37.54-1.747-1.405-31.469 32.632-31.469 32.632a4.25 4.25 0 0 0-.272.381c-3.338 5.296-4.499 10.514-4.161 15.145l-16.905 26.419a4.071 4.071 0 0 0-.641 2.191l.019 76.924c-.232 6.965-1.877 12.056-4.418 15.324-2.009 2.585-4.556 3.88-7.138 3.741a8.167 8.167 0 0 1-2.481-.527zM189.352 236.66c-2.976 2.249-6.386 3.67-10.041 3.67-4.602 0-8.814-2.253-12.264-5.574-5.569-5.361-9.218-13.533-9.218-20.96a21.38 21.38 0 0 1 4.013-12.498 21.374 21.374 0 0 1 12.497-4.012c11.856 0 21.481 9.626 21.481 21.482 0 6.122-2.478 12.75-6.468 17.892zM274.769 233.296c-3.848 2.982-8.286 4.867-13.046 4.867-5.83 0-11.177-2.827-15.548-7.034-6.949-6.69-11.495-16.892-11.495-26.161a26.913 26.913 0 0 1 5.289-16.059 26.913 26.913 0 0 1 16.059-5.289c14.925 0 27.042 12.118 27.042 27.043 0 7.76-3.186 16.174-8.301 22.633zM352.692 236.696c-2.984 2.264-6.405 3.695-10.074 3.695-4.603 0-8.814-2.252-12.265-5.574-5.568-5.36-9.217-13.532-9.217-20.96 0-4.676 1.497-9.005 4.038-12.533a21.373 21.373 0 0 1 12.533-4.038c11.856 0 21.482 9.626 21.482 21.482 0 6.136-2.491 12.781-6.497 17.928z" fill="#fbbd9c" opacity="1" data-original="#fbbd9c"></path></g><path fill="#aabbc2" d="M152.194 284.566a.3.3 0 0 0-.143-.039c-1.531 0-2.865 13.453-3.558 21.999a45.178 45.178 0 0 1-7.146-6.274c-1.401-17.885 2.642-27.335 7.7-32.298l13.601-5.28c7.782 1.986 15.566 2.031 23.349.004-.001.001 14.038 5.451 19.604 7.611a17.439 17.439 0 0 0-4.808 12.026v6.391c-1.374-1.741-2.574-2.615-3.433-3.054-.252-.718-.513-1.125-.779-1.125-.205 0-.406.242-.603.681-1.556 3.467-2.824 19.242-3.279 25.571a44.64 44.64 0 0 1-18.383 3.935c-4.583 0-9.006-.689-13.171-1.969-1.312-11.603-6.225-22.622-8.16-26.608-.256-.865-.52-1.423-.791-1.571z" opacity="1" data-original="#aabbc2"></path><path fill="#f05d88" d="M241.737 263.199c9.512 2.474 19.026 2.531 28.539.005l26.86 10.428.089.034.112.046a9.316 9.316 0 0 1 5.743 8.603v19.937a55.759 55.759 0 0 1-1.201 1.839l-.06.087a55.865 55.865 0 0 1-6.855 8.202c-4.508-13.031-11.455-20.406-11.455-20.406-.13-.23-.263-.352-.397-.352-1.863 0-3.435 23.673-3.914 31.683A55.216 55.216 0 0 1 256 328.38c-4.334 0-8.552-.498-12.601-1.44-5.699-9.797-11.455-26.721-13.433-32.786-.232-1.069-.472-1.849-.719-2.243-.118-.189-.238-.289-.359-.289-1.6 0-2.984 17.439-3.647 27.447a55.892 55.892 0 0 1-9.593-8.108c-.101-9.429-.153-21.881.175-27.861.522-9.537 22.149-18.42 25.484-19.734l.43-.167z" opacity="1" data-original="#f05d88"></path><path fill="#58caed" d="M368.248 302.671c-3.153-4.723-6.153-12.954-7.26-16.163-.147-.55-.297-1.002-.45-1.334-.192-.418-.389-.647-.589-.647-1.824 0-3.369 19.121-3.882 26.252a44.64 44.64 0 0 1-18.383 3.935c-3.534 0-6.974-.41-10.273-1.184-4.652-7.722-9.217-21.43-10.81-26.448-.193-.814-.391-1.467-.594-1.908-.192-.418-.389-.647-.588-.647-1.531 0-2.865 13.453-3.558 21.999a45.815 45.815 0 0 1-1.289-.946l.059-.099c.377-.63.576-1.351.576-2.085v-21.081c0-4.573-1.785-8.848-4.808-12.026l19.617-7.615c7.782 1.986 15.566 2.031 23.349.004-.001.001 21.838 8.479 21.838 8.479a6.922 6.922 0 0 1 4.418 6.454v16.163a45.15 45.15 0 0 1-7.373 8.897z" opacity="1" data-original="#58caed"></path><path fill="#ffffff" d="M408.923 112.52a4.234 4.234 0 0 1-.53-5.962 4.234 4.234 0 0 1 5.962-.53c.708.591 1.411 1.19 2.11 1.795a4.236 4.236 0 0 1 .429 5.971 4.236 4.236 0 0 1-5.971.429 159.33 159.33 0 0 0-2-1.703zM360.871 84.2a4.235 4.235 0 0 1-2.375-5.495 4.236 4.236 0 0 1 5.496-2.374c13.294 5.272 27.086 12.47 40.02 21.703a4.234 4.234 0 0 1-4.919 6.89c-12.352-8.818-25.525-15.689-38.222-20.724zM145.047 361.27c-1.516-1.777-1.305-4.45.472-5.967s4.451-1.305 5.968.472c.4.469.795.94 1.185 1.414a4.235 4.235 0 0 1-.577 5.958 4.235 4.235 0 0 1-5.958-.577c-.359-.435-.722-.869-1.09-1.3zm-36.897-22.337c-2.304-.382-3.866-2.563-3.484-4.868s2.564-3.866 4.868-3.484c12.786 2.119 23.216 7.756 31.812 15.025a4.235 4.235 0 0 1 .499 5.965 4.234 4.234 0 0 1-5.965.499c-7.498-6.339-16.579-11.289-27.73-13.137z" opacity="1" data-original="#ffffff"></path></g></svg>