<svg xmlns="http://www.w3.org/2000/svg" version="1.1" xmlns:xlink="http://www.w3.org/1999/xlink" width="512" height="512" x="0" y="0" viewBox="0 0 512 512" style="enable-background:new 0 0 512 512" xml:space="preserve" class=""><g><path fill="#ffb983" d="M19.96 435.375s-8.457 61.628 41.293 76.336H205.63c49.75-14.708 41.293-76.336 41.293-76.336L135.57 397.899z" opacity="1" data-original="#ffb983"></path><path fill="#fcd0a3" d="M151.075 397.903h-35.266c-15.795 0-28.599-12.804-28.599-28.599v-42.82h92.465v42.82c0 15.795-12.805 28.599-28.6 28.599z" opacity="1" data-original="#fcd0a3"></path><path fill="#ffb983" d="M242.515 272.409h.153c13.116 0 23.744-10.637 23.744-23.744 0-13.116-10.628-23.753-23.744-23.753-.171 0-.341 0-.512.009H24.728c-.171-.009-.341-.009-.512-.009-13.116 0-23.744 10.637-23.744 23.753 0 13.107 10.628 23.744 23.744 23.744h.153" opacity="1" data-original="#ffb983"></path><path fill="#ec6161" d="M179.675 349.561s67.249 8.455 67.249 40.684v45.13H205.63v76.336H61.253v-76.336H19.96v-45.13c0-32.228 67.249-40.684 67.249-40.684" opacity="1" data-original="#ec6161"></path><path fill="#d63030" d="M93.185 511.714H61.26v-76.336h-41.3v-45.132c0-32.224 67.25-40.682 67.25-40.682h15.484l.742.577C87.21 350.14 65 403.029 93.185 511.714z" opacity="1" data-original="#d63030"></path><path fill="#fcd0a3" d="M179.671 365.762v3.545c0 15.797-12.798 28.596-28.596 28.596h-15.498c-15.787 0-28.596-12.798-28.596-28.596v-2.875c24.227.608 48.464.382 72.69-.67z" opacity="1" data-original="#fcd0a3"></path><path fill="#ffb983" d="M179.674 326.488v39.281l-.01-.01a1062.068 1062.068 0 0 1-72.689.67v2.875c0 15.797 12.809 28.596 28.596 28.596h-19.764c-15.787 0-28.596-12.798-28.596-28.596v-42.816z" opacity="1" data-original="#ffb983"></path><path fill="#fcd0a3" d="M237.053 162.906a1071.173 1071.173 0 0 0-207.222 0c-5.36 42.948-6.939 85.895-4.736 128.843 1.603 31.264 26.621 56.148 57.89 57.625a1069.407 1069.407 0 0 0 100.914 0c31.27-1.476 56.287-26.361 57.89-57.625 2.203-42.947.625-85.895-4.736-128.843z" opacity="1" data-original="#fcd0a3"></path><path fill="#ffb983" d="M29.835 162.899a1072.78 1072.78 0 0 1 103.614-5.018c-17.487 0-34.974 1.69-52.461 5.07a1472.953 1472.953 0 0 0-2.401 130.076c.732 28.534 11.16 51.802 24.845 57.109-6.811-.185-13.633-.443-20.445-.763-31.264-1.474-56.284-26.359-57.892-57.624-2.195-42.95-.618-85.9 4.74-128.85z" opacity="1" data-original="#ffb983"></path><path fill="#e7ab8a" d="M133.442 302.07c-12.413 0-23.874-7.247-29.197-18.464a7.726 7.726 0 0 1 3.667-10.293 7.725 7.725 0 0 1 10.293 3.667c2.779 5.855 8.76 9.637 15.237 9.637 6.478 0 12.458-3.783 15.236-9.637a7.727 7.727 0 0 1 13.961 6.625c-5.323 11.217-16.783 18.465-29.197 18.465z" opacity="1" data-original="#e7ab8a"></path><path fill="#3c5959" d="M241.573 205.676c-22.052 22.062-65.723-22.052-65.723-22.052 1.237 7.986-1.01 15.766-9.666 21.949-6.131 4.379-13.066 6.306-20.249 6.595-28.781 1.154-61.406-24.154-61.406-24.154-5.812 15.983-22.959 15.663-37.169 12.16-13.077-3.225-24.123-11.881-30.43-23.783-10.84-20.456-25.534-55.059-10.551-70.042 21.949-21.949 49.174 0 49.174 0s26.442-9.923 60.19-16.951c.01 0 .031-.01.041-.01 40.384-8.409 91.217-12.695 119.771 9.068 29.471 22.464 28.08 85.168 6.018 107.22z" opacity="1" data-original="#3c5959"></path><path fill="#394949" d="M145.935 212.168c-28.781 1.154-61.406-24.154-61.406-24.154-5.812 15.983-22.959 15.663-37.169 12.16-13.077-3.225-24.123-11.881-30.43-23.783-10.84-20.456-25.534-55.059-10.551-70.042 21.949-21.949 49.174 0 49.174 0s26.442-9.923 60.19-16.951c-43.631 11.459-7.863 109.106 30.192 122.77z" opacity="1" data-original="#394949"></path><path fill="#fcb143" d="M456.653 291.752c47.29 0 48.633 59.287 55.347 78.087 0 0-50.834-8.822-66.71-45.704" opacity="1" data-original="#fcb143"></path><path fill="#ffb983" d="M234.822 435.378s-8.457 61.628 41.293 76.336h144.376c49.75-14.708 41.293-76.336 41.293-76.336l-111.353-37.476z" opacity="1" data-original="#ffb983"></path><path fill="#fcd0a3" d="M365.937 397.905h-35.266c-15.795 0-28.599-12.804-28.599-28.599v-42.82h92.465v42.82c-.001 15.795-12.805 28.599-28.6 28.599z" opacity="1" data-original="#fcd0a3"></path><path fill="#ffb983" d="M457.377 272.412h.153c13.116 0 23.744-10.637 23.744-23.744 0-13.116-10.628-23.753-23.744-23.753-.171 0-.341 0-.512.009H239.59c-.171-.009-.341-.009-.512-.009-13.116 0-23.744 10.637-23.744 23.753 0 13.107 10.628 23.744 23.744 23.744h.153" opacity="1" data-original="#ffb983"></path><path fill="#0a93a3" d="M461.789 390.244v45.132h-41.3v76.336h-144.37v-76.336h-41.3v-45.132c0-32.224 67.25-40.682 67.25-40.682h92.469c.001 0 67.251 8.458 67.251 40.682z" opacity="1" data-original="#0a93a3"></path><path fill="#046b74" d="M308.045 511.713H276.12v-76.336h-41.3v-45.132c0-32.224 67.25-40.682 67.25-40.682h15.484l.742.577c-16.226-.001-38.437 52.889-10.251 161.573z" opacity="1" data-original="#046b74"></path><path fill="#fcd0a3" d="M394.533 365.765v3.545c0 15.797-12.798 28.596-28.596 28.596h-15.498c-15.787 0-28.596-12.798-28.596-28.596v-2.875c24.227.608 48.463.381 72.69-.67z" opacity="1" data-original="#fcd0a3"></path><path fill="#ffb983" d="M394.536 326.49v39.281l-.01-.01a1062.068 1062.068 0 0 1-72.689.67v2.875c0 15.797 12.809 28.596 28.596 28.596h-19.764c-15.787 0-28.596-12.798-28.596-28.596V326.49z" opacity="1" data-original="#ffb983"></path><path fill="#fcd0a3" d="M451.915 162.909a1071.173 1071.173 0 0 0-207.222 0c-5.36 42.948-6.939 85.895-4.736 128.843 1.603 31.264 26.621 56.148 57.89 57.625a1069.407 1069.407 0 0 0 100.914 0c31.27-1.476 56.287-26.361 57.891-57.625 2.202-42.948.623-85.896-4.737-128.843z" opacity="1" data-original="#fcd0a3"></path><path fill="#ffb983" d="M244.697 162.902a1072.78 1072.78 0 0 1 103.614-5.018c-17.487 0-34.974 1.69-52.461 5.07a1472.953 1472.953 0 0 0-2.401 130.076c.732 28.534 11.16 51.802 24.845 57.109-6.811-.185-13.633-.443-20.445-.763-31.264-1.474-56.284-26.359-57.892-57.624-2.195-42.95-.619-85.9 4.74-128.85z" opacity="1" data-original="#ffb983"></path><path fill="#e7ab8a" d="M348.304 302.072c-12.413 0-23.874-7.247-29.197-18.464a7.726 7.726 0 1 1 13.96-6.626c2.779 5.855 8.76 9.637 15.237 9.637s12.458-3.783 15.236-9.637a7.728 7.728 0 0 1 13.961 6.625c-5.323 11.217-16.784 18.465-29.197 18.465z" opacity="1" data-original="#e7ab8a"></path><path fill="#fcb143" d="M456.292 210.108s-78.687-3.658-107.983-52.224c-12.438 20.64-33.799 33.16-54.254 40.734-27.699 10.284-53.729 11.49-53.729 11.49S203.137 89.182 348.31 89.182s107.982 120.926 107.982 120.926z" opacity="1" data-original="#fcb143"></path><path fill="#fa9801" d="M348.31 89.182c-38.117 16.797-52.461 73.761-54.254 109.436-27.699 10.284-53.729 11.49-53.729 11.49S203.137 89.182 348.31 89.182z" opacity="1" data-original="#fa9801"></path><ellipse cx="278.559" cy="274.495" fill="#ec6161" rx="19.639" ry="9.064" opacity="1" data-original="#ec6161"></ellipse><ellipse cx="418.049" cy="274.495" fill="#ec6161" rx="19.639" ry="9.064" opacity="1" data-original="#ec6161"></ellipse><path fill="#ec6161" d="M247.038 139.387C162.477 95.582 151.147 21.632 189.829 3.892c38.259-17.543 57.209 34.637 57.209 34.637s18.945-52.18 57.204-34.637a35.648 35.648 0 0 1 5.754 3.304c.005.005.016.01.026.016.261.182.511.37.761.552 30.483 22.817 15.63 90.502-63.745 131.623z" opacity="1" data-original="#ec6161"></path><path fill="#ffb983" d="M330.47 450.368h.12c10.295 0 18.637-8.349 18.637-18.637 0-10.295-8.342-18.644-18.637-18.644-.134 0-.268 0-.402.007H138.923c-.134-.007-.268-.007-.402-.007-10.295 0-18.637 8.349-18.637 18.644 0 10.288 8.342 18.637 18.637 18.637h.12" opacity="1" data-original="#ffb983"></path><path fill="#fcd0a3" d="M315.881 364.418a840.865 840.865 0 0 0-162.651 0c-4.207 33.71-5.446 67.42-3.718 101.13 1.259 24.539 20.895 44.072 45.439 45.23a839.001 839.001 0 0 0 79.208 0c24.544-1.159 44.18-20.691 45.439-45.23 1.73-33.71.49-67.42-3.717-101.13z" opacity="1" data-original="#fcd0a3"></path><path fill="#ffb983" d="M153.233 364.413a841.946 841.946 0 0 1 81.328-3.939c-13.726 0-27.452 1.326-41.177 3.979a1156.353 1156.353 0 0 0-1.885 102.098c.574 22.396 8.76 40.66 19.501 44.825a819.209 819.209 0 0 1-16.047-.599c-24.54-1.157-44.178-20.69-45.44-45.23-1.723-33.711-.486-67.422 3.72-101.134z" opacity="1" data-original="#ffb983"></path><path fill="#e7ab8a" d="M234.555 473.765c-9.788 0-18.825-5.715-23.023-14.559a6.181 6.181 0 0 1 11.168-5.3c2.162 4.555 6.815 7.498 11.855 7.498s9.693-2.943 11.855-7.498a6.18 6.18 0 1 1 11.168 5.3c-4.198 8.845-13.234 14.559-23.023 14.559z" opacity="1" data-original="#e7ab8a"></path><g fill="#394949"><ellipse cx="82.883" cy="240.324" rx="9.916" ry="14.745" fill="#394949" opacity="1" data-original="#394949"></ellipse><path d="M193.918 240.324c0-8.131-4.448-14.745-9.916-14.745s-9.917 6.615-9.917 14.745 4.449 14.745 9.917 14.745 9.916-6.614 9.916-14.745z" fill="#394949" opacity="1" data-original="#394949"></path><ellipse cx="297.745" cy="240.327" rx="9.916" ry="14.745" fill="#394949" opacity="1" data-original="#394949"></ellipse><path d="M398.863 225.581c-5.468 0-9.917 6.615-9.917 14.745s4.449 14.745 9.917 14.745 9.916-6.615 9.916-14.745-4.448-14.745-9.916-14.745z" fill="#394949" opacity="1" data-original="#394949"></path><ellipse cx="194.871" cy="425.184" rx="7.839" ry="11.629" fill="#394949" opacity="1" data-original="#394949"></ellipse><path d="M274.24 413.555c-4.322 0-7.839 5.217-7.839 11.629s3.517 11.629 7.839 11.629 7.839-5.217 7.839-11.629-3.517-11.629-7.839-11.629z" fill="#394949" opacity="1" data-original="#394949"></path></g><path fill="#d5694c" d="M319.317 401.465s-61.762-2.871-84.757-40.991c-9.763 16.201-26.529 26.028-42.585 31.973-21.741 8.072-42.172 9.018-42.172 9.018s-29.191-94.916 84.757-94.916 84.757 94.916 84.757 94.916z" opacity="1" data-original="#d5694c"></path><path fill="#a64c31" d="M234.56 306.549c-29.918 13.184-41.177 57.896-42.585 85.897-21.741 8.072-42.172 9.018-42.172 9.018s-29.191-94.915 84.757-94.915z" opacity="1" data-original="#a64c31"></path></g></svg>