<svg xmlns="http://www.w3.org/2000/svg" version="1.1" xmlns:xlink="http://www.w3.org/1999/xlink" width="512" height="512" x="0" y="0" viewBox="0 0 512 512" style="enable-background:new 0 0 512 512" xml:space="preserve" class=""><g><path fill="#d7ecfe" d="M141.779 0h61.008c1.912 0 3.746.76 5.099 2.112l29.885 29.885-90.799 9.055a7.214 7.214 0 0 1-5.099-2.112z" opacity="1" data-original="#d7ecfe" class=""></path><path fill="#f0fcff" d="M336.473 479.959H31.23a7.211 7.211 0 0 1-7.211-7.211V7.211A7.21 7.21 0 0 1 31.23 0h110.549l29.885 29.885a7.211 7.211 0 0 0 5.099 2.112h152.5a7.211 7.211 0 0 1 7.211 7.211v440.751z" opacity="1" data-original="#f0fcff" class=""></path><path fill="#d7ecfe" d="M348.319 31.997h-30.903a7.211 7.211 0 0 1 7.211 7.211v440.751h30.903V39.208a7.211 7.211 0 0 0-7.211-7.211z" opacity="1" data-original="#d7ecfe" class=""></path><path fill="#808b95" d="M122.473 295.007h-8.731c-18.686 0-33.834-15.148-33.834-33.834v-83.67h76.4v83.67c-.001 18.686-15.149 33.834-33.835 33.834z" opacity="1" data-original="#808b95"></path><path fill="#5e6b75" d="M178.256 177.503v83.67c0 18.686-15.148 33.834-33.834 33.834h51.81c18.686 0 33.834-15.148 33.834-33.834v-83.67z" opacity="1" data-original="#5e6b75"></path><path fill="#fd8087" d="M65.906 351.971a7.211 7.211 0 0 1-7.211-7.211v-22.729c0-18.355 13.571-33.882 31.76-36.339h21.091c18.19 2.457 31.76 17.985 31.76 36.339 0 0-42.689 29.94-46.671 29.94z" opacity="1" data-original="#fd8087"></path><path fill="#fe646f" d="M219.228 285.692h-37.65c18.19 2.457 24.232 17.985 24.232 36.339v22.729a7.211 7.211 0 0 1-7.211 7.211h45.178a7.211 7.211 0 0 0 7.211-7.211v-22.729c0-18.354-13.571-33.882-31.76-36.339z" opacity="1" data-original="#fe646f"></path><path fill="#ffc344" d="m122.194 276.509-25.558 9.183v66.279h116.702v-66.279l-25.849-9.183z" opacity="1" data-original="#ffc344"></path><path fill="#feb137" d="M154.842 321.966a7.726 7.726 0 0 1-7.726-7.726v-25.048a7.726 7.726 0 1 1 15.452 0v25.048a7.727 7.727 0 0 1-7.726 7.726z" opacity="1" data-original="#feb137"></path><path fill="#ffdacc" d="M122.193 224.933v51.576a48.214 48.214 0 0 0 17.196 10.156s12.451.737 25.815-11.492v-39.467h-14.632c-10.487.001-20.231-3.954-28.379-10.773z" opacity="1" data-original="#ffdacc"></path><path fill="#fcccb9" d="M159.11 235.707h-2.524v37.575c0 2.093-.915 4.104-2.553 5.408a48.128 48.128 0 0 1-14.643 7.975c16.218 5.458 34.735 2.073 48.099-10.156v-51.576c-8.147 6.819-17.891 10.774-28.379 10.774z" opacity="1" data-original="#fcccb9"></path><path fill="#ffece4" d="M184.915 137.621v80.416c0 25.382-41.803 35.081-45.525 34.109-19.739-5.159-34.306-23.113-34.306-44.469v-3.5l-8.618-18.27 8.618-18.27v-25.299c0-10.379 8.413-18.792 18.792-18.792h46.964c7.773 0 14.075 6.302 14.075 14.075z" opacity="1" data-original="#ffece4"></path><path fill="#ffdacc" d="M190.524 123.546h-30.903c7.773 0 14.074 6.301 14.074 14.074v70.056c0 21.356-14.566 39.309-34.306 44.468a46.017 46.017 0 0 0 11.653 1.491h7.597c25.382 0 45.959-20.577 45.959-45.959v-3.5l6.722-18.27-6.722-18.27V137.62c.001-7.772-6.301-14.074-14.074-14.074z" opacity="1" data-original="#ffdacc"></path><path fill="#5e6b75" d="M189.082 102.299c22.62 0 40.957 18.337 40.957 40.957v28.854h-25.204c0-13.155-1.997-34.906-33.988-34.906l-.007-34.906h18.242z" opacity="1" data-original="#5e6b75"></path><path fill="#808b95" d="M119.08 154.29c-7.238-.833-13.996 4.831-13.996 12.258v10.955H79.88v-32.329c0-29.651 24.037-53.688 53.688-53.688h26.409c17.373 0 31.456 14.084 31.456 31.456 0 17.406-14.135 31.503-31.54 31.456z" opacity="1" data-original="#808b95"></path><g fill="#fcccb9"><path d="M204.599 167.637h14.297c8.584 0 15.543 6.959 15.543 15.543v5.456c0 8.584-6.959 15.543-15.543 15.543h-14.297zM105.084 167.637H90.787c-8.584 0-15.543 6.959-15.543 15.543v5.456c0 8.584 6.959 15.543 15.543 15.543h14.297z" fill="#fcccb9" opacity="1" data-original="#fcccb9"></path></g><path fill="#9dcffd" d="M461.713 223.982H292.977a7.211 7.211 0 0 1-7.211-7.211V135.2a7.211 7.211 0 0 1 7.211-7.211h168.736a7.211 7.211 0 0 1 7.211 7.211v81.571a7.211 7.211 0 0 1-7.211 7.211zM457.311 351.971H292.977a7.211 7.211 0 0 1-7.211-7.211v-81.57a7.211 7.211 0 0 1 7.211-7.211h164.334a7.211 7.211 0 0 1 7.211 7.211v81.571a7.21 7.21 0 0 1-7.211 7.21z" opacity="1" data-original="#9dcffd"></path><path fill="#84c4f4" d="M480.77 127.99h-30.903a7.211 7.211 0 0 1 7.211 7.211v81.571a7.211 7.211 0 0 1-7.211 7.211h30.903a7.211 7.211 0 0 0 7.211-7.211V135.2a7.21 7.21 0 0 0-7.211-7.21zM480.77 255.979h-30.903a7.211 7.211 0 0 1 7.211 7.211v81.571a7.211 7.211 0 0 1-7.211 7.211h30.903a7.211 7.211 0 0 0 7.211-7.211V263.19a7.21 7.21 0 0 0-7.211-7.211z" opacity="1" data-original="#84c4f4"></path><path fill="#9dcffd" d="M457.311 495.959H162.198a7.211 7.211 0 0 1-7.211-7.211v-81.571a7.211 7.211 0 0 1 7.211-7.211h295.114a7.211 7.211 0 0 1 7.211 7.211v81.571a7.212 7.212 0 0 1-7.212 7.211z" opacity="1" data-original="#9dcffd"></path><path fill="#84c4f4" d="M480.77 399.967h-30.903a7.211 7.211 0 0 1 7.211 7.211v81.571a7.211 7.211 0 0 1-7.211 7.211h30.903a7.211 7.211 0 0 0 7.211-7.211v-81.571a7.211 7.211 0 0 0-7.211-7.211z" opacity="1" data-original="#84c4f4"></path><path fill="#abdc94" d="M163.599 447.964c0 60.109-54.091 63.354-59.04 62.127-27.884-6.912-48.553-32.106-48.553-62.127s20.669-55.215 48.553-62.127c4.949-1.227 59.04 2.354 59.04 62.127z" opacity="1" data-original="#abdc94"></path><path fill="#8ccf75" d="M104.56 385.837c27.884 6.912 48.553 32.106 48.553 62.127s-20.669 55.214-48.553 62.127c40.276 9.984 79.456-20.429 79.456-62.127 0-41.649-39.139-72.121-79.456-62.127z" opacity="1" data-original="#8ccf75"></path><path fill="#ffe177" d="m117.321 430.554-4.027 8.161a3.001 3.001 0 0 1-2.259 1.641l-9.006 1.309c-2.461.358-3.443 3.381-1.663 5.117l7.646 7.453 3.39.213c8.398.527 15.607-5.914 16.024-14.318l-4.725-9.575c-1.1-2.23-4.28-2.23-5.38-.001z" opacity="1" data-original="#ffe177"></path><path fill="#ffce71" d="M139.656 446.782c1.781-1.736.798-4.759-1.663-5.117l-10.566-1.535-.033-.067c-3.753 7.455-10.837 12.875-19.39 14.22l-1.797 10.476c-.42 2.451 2.152 4.32 4.353 3.162l8.055-4.235a3.003 3.003 0 0 1 2.792 0l8.055 4.235c2.201 1.157 4.773-.712 4.353-3.162l-1.538-8.969a3 3 0 0 1 .863-2.655z" opacity="1" data-original="#ffce71"></path><path fill="#fd8087" d="M58.676 24.276c-4.343 0-7.708 3.579-7.708 7.722 0 4.365 3.565 7.726 7.726 7.726 4.215 0 7.726-3.426 7.726-7.726 0-4.261-3.47-7.722-7.744-7.722zM91.76 39.724c4.404 0 7.726-3.618 7.726-7.726 0-4.149-3.365-7.726-7.727-7.726-4.326 0-7.724 3.523-7.724 7.726-.001 4.331 3.546 7.726 7.725 7.726zM124.826 39.724c4.295 0 7.726-3.523 7.726-7.726 0-4.174-3.393-7.726-7.727-7.726a7.72 7.72 0 0 0-7.725 7.726 7.729 7.729 0 0 0 7.726 7.726z" opacity="1" data-original="#fd8087"></path><g fill="#d7ecfe"><path d="M446.788 152.261H326.96a7.726 7.726 0 1 0 0 15.452h119.828a7.726 7.726 0 1 0 0-15.452zM427.51 184.258H326.96a7.726 7.726 0 1 0 0 15.452h100.55a7.726 7.726 0 1 0 0-15.452zM454.513 287.977a7.726 7.726 0 0 0-7.726-7.726H326.96a7.726 7.726 0 1 0 0 15.452h119.828a7.727 7.727 0 0 0 7.725-7.726zM326.96 312.248a7.726 7.726 0 1 0 0 15.452h100.55a7.726 7.726 0 1 0 0-15.452zM223.858 439.69h222.93a7.726 7.726 0 1 0 0-15.452h-222.93a7.726 7.726 0 1 0 0 15.452zM223.858 471.688H427.51a7.726 7.726 0 1 0 0-15.452H223.858a7.726 7.726 0 1 0 0 15.452z" fill="#d7ecfe" opacity="1" data-original="#d7ecfe" class=""></path></g></g></svg>