<svg xmlns="http://www.w3.org/2000/svg" version="1.1" xmlns:xlink="http://www.w3.org/1999/xlink" width="512" height="512" x="0" y="0" viewBox="0 0 464 455.78" style="enable-background:new 0 0 512 512" xml:space="preserve" class=""><g><g data-name="Calque 2"><g data-name="37- Part Time"><path fill="#3e3e7a" d="M186 388.5c-102.73 0-186-87-186-194.25S83.28 0 186 0h36.74v388.5z" opacity="1" data-original="#3e3e7a" class=""></path><path fill="#51518e" d="M408.77 194.25a205.88 205.88 0 0 1-1.52 25A201.13 201.13 0 0 1 401 250c-20.89 72.92-81.69 127.85-155.94 137.1a179.55 179.55 0 0 1-76.29-6.92c-76.4-24.16-132-98.27-132-185.94C36.74 87 120 0 222.75 0s186.02 87 186.02 194.25z" opacity="1" data-original="#51518e" class=""></path><path fill="#fcf4f6" d="M376.22 194.25q0 4.32-.22 8.58a164.85 164.85 0 0 1-15.47 62.09c-21.87 46.42-64.63 80.18-115.48 87.91a148.14 148.14 0 0 1-76.29-8.53c-58.12-22.81-99.47-81.38-99.47-150C69.29 105.74 138 34 222.75 34s153.47 71.74 153.47 160.25z" opacity="1" data-original="#fcf4f6"></path><path fill="#3e3e7a" d="M245.05 352.83v34.28a179.55 179.55 0 0 1-76.29-6.92V344.3a148.14 148.14 0 0 0 76.29 8.53z" opacity="1" data-original="#3e3e7a" class=""></path><path fill="#f0e3e7" d="M436.31 237 401 250l-40.46 14.91-104.1 38.36a17.33 17.33 0 0 0-11.39 16.25v33.31a148.14 148.14 0 0 1-76.29-8.53v-64.84a17.33 17.33 0 0 1 11.39-16.25l175.34-64.59a17.61 17.61 0 0 1 14.26.93l6.25 3.28 31.25 16.41 22.57 11.85a17.46 17.46 0 0 1 6.49 5.91z" opacity="1" data-original="#f0e3e7"></path><path fill="#51518e" d="M226.2 214.34h-58.47c-8.35 0-15.53-6.41-15.92-14.75a15.5 15.5 0 0 1 15.48-16.25h39.28a4.13 4.13 0 0 0 4.13-4.13v-77.73c0-8.35 6.41-15.53 14.75-15.92A15.5 15.5 0 0 1 241.7 101v97.8a15.5 15.5 0 0 1-15.5 15.54z" opacity="1" data-original="#51518e" class=""></path><path fill="#ffb48d" d="M464 250.58v123.28a17.35 17.35 0 0 1-11.39 16.25L277.27 454.7a17.73 17.73 0 0 1-14.27-.93l-60.06-31.55a17.3 17.3 0 0 1-9.3-15.32V283.63A17.33 17.33 0 0 1 205 267.38l175.34-64.59a17.61 17.61 0 0 1 14.26.93l57.29 30.08 2.78 1.46a17.46 17.46 0 0 1 6.49 5.91 17.21 17.21 0 0 1 2.84 9.41z" opacity="1" data-original="#ffb48d"></path><path fill="#eb8f65" d="M464 250.58v50.26c0 22.31-17.64 29.94-17.64 29.94l-151.21 55.7s-25.22 9-25.22-18.35L232 286l219.92-52.2 2.78 1.46a17.46 17.46 0 0 1 6.49 5.91 17.21 17.21 0 0 1 2.81 9.41z" opacity="1" data-original="#eb8f65"></path><path fill="#f5a27e" d="m461.19 241.17-179.87 66.27a17.33 17.33 0 0 0-11.39 16.25v132a17.38 17.38 0 0 1-6.93-2l-60.06-31.55a17.3 17.3 0 0 1-9.3-15.32V283.63A17.33 17.33 0 0 1 205 267.38l175.34-64.59a17.61 17.61 0 0 1 14.26.93l60.07 31.54a17.46 17.46 0 0 1 6.52 5.91z" opacity="1" data-original="#f5a27e"></path><path fill="#51518e" d="M369.53 209.35v33.14s-5.93 10.55-19.81 6.23a40.31 40.31 0 0 1-11.66-6.23V223.3l-34.8 15.7v26.7s-13.37 23.45-33.31 8.8v-51.37l75.36-34.34s24.22-3.22 24.22 20.56z" opacity="1" data-original="#51518e" class=""></path><path fill="#3e3e7a" d="M349.72 217.43v31.29a40.31 40.31 0 0 1-11.66-6.23V223.3z" opacity="1" data-original="#3e3e7a" class=""></path><g fill="#51518e"><ellipse cx="342.57" cy="368.33" rx="19.05" ry="34.77" fill="#51518e" opacity="1" data-original="#51518e" class=""></ellipse><ellipse cx="417.26" cy="340.89" rx="19.05" ry="34.77" fill="#51518e" opacity="1" data-original="#51518e" class=""></ellipse></g></g></g></g></svg>