<svg xmlns="http://www.w3.org/2000/svg" version="1.1" xmlns:xlink="http://www.w3.org/1999/xlink" width="512" height="512" x="0" y="0" viewBox="0 0 48 48" style="enable-background:new 0 0 512 512" xml:space="preserve" class=""><g><linearGradient id="a" x1="24" x2="24" y1="18" y2="9" gradientUnits="userSpaceOnUse"><stop offset="0" stop-color="#54a5ff"></stop><stop offset="1" stop-color="#8ad3fe"></stop></linearGradient><linearGradient xlink:href="#a" id="c" x1="24" x2="24" y1="38" y2="18"></linearGradient><linearGradient id="b" x1="37" x2="33" y1="4" y2="4" gradientUnits="userSpaceOnUse"><stop offset="0" stop-color="#fe9661"></stop><stop offset="1" stop-color="#ffb369"></stop></linearGradient><linearGradient xlink:href="#b" id="d" x1="31" x2="40" y1="42.5" y2="42.5"></linearGradient><linearGradient xlink:href="#b" id="e" x1="29.41" x2="34.59" y1="39" y2="39" gradientTransform="rotate(45 32.004 39)"></linearGradient><linearGradient xlink:href="#b" id="f" x1="15" x2="35" y1="32" y2="32"></linearGradient><linearGradient id="g" x1="17" x2="33" y1="32" y2="32" gradientUnits="userSpaceOnUse"><stop offset="0" stop-color="#d3e6f5"></stop><stop offset="1" stop-color="#f0f7fc"></stop></linearGradient><g data-name="Empty Folder"><path fill="url(#a)" d="M7 18v-7a2 2 0 0 1 2-2h9.33a2 2 0 0 1 1.2.4l2.94 2.2a2 2 0 0 0 1.2.4H39a2 2 0 0 1 2 2v4z" opacity="1" data-original="url(#a)"></path><path fill="url(#a)" d="m43 19.16-3 18a1 1 0 0 1-1 .84H9a1 1 0 0 1-1-.84l-3-18A1 1 0 0 1 6 18h36a1 1 0 0 1 1 1.16z" opacity="1" data-original="url(#a)"></path><path fill="#d7e9f7" d="M38.53 2.71C37.63 1.64 36 .84 35 1.78c-1-.93-2.6-.16-3.53.93-1.07 1.29-1.25 2.87-.41 3.58s2.4.27 3.47-1c.78-.93.16-.93.94 0 1.07 1.27 2.62 1.71 3.47 1s.66-2.29-.41-3.58z" opacity="1" data-original="#d7e9f7"></path><ellipse cx="35" cy="4" fill="url(#b)" rx="2" ry="3" opacity="1" data-original="url(#b)"></ellipse><path fill="url(#b)" d="M40 44.88a2.13 2.13 0 0 1-3.62 1.5L31 41l3-3 5.38 5.38a2.11 2.11 0 0 1 .62 1.5z" opacity="1" data-original="url(#b)"></path><rect width="5.66" height="2.83" x="29.17" y="37.59" fill="url(#e)" rx="1" transform="rotate(-45 31.997 39.003)" opacity="1" data-original="url(#e)"></rect><circle cx="25" cy="32" r="10" fill="url(#f)" opacity="1" data-original="url(#f)"></circle><circle cx="25" cy="32" r="8" fill="url(#g)" opacity="1" data-original="url(#g)"></circle><path fill="#b4cde1" d="M25 34c-1.43 0-1.33-2.51.32-3.05A1 1 0 1 0 24 30a1 1 0 0 1-1 1c-1.91 0-1-4 2-4a3 3 0 0 1 1 5.85V33a1 1 0 0 1-1 1zM25 37a1 1 0 1 1 1-1 1 1 0 0 1-1 1z" opacity="1" data-original="#b4cde1"></path><path fill="#d7e9f7" d="M25 16c-1.91 0-1-4 2-4h6a1 1 0 0 0 1-1v-1a1 1 0 0 1 2 0v1a3 3 0 0 1-3 3h-6a1 1 0 0 0-1 1 1 1 0 0 1-1 1z" opacity="1" data-original="#d7e9f7"></path></g></g></svg>