<svg xmlns="http://www.w3.org/2000/svg" version="1.1" xmlns:xlink="http://www.w3.org/1999/xlink" width="512" height="512" x="0" y="0" viewBox="0 0 512 512" style="enable-background:new 0 0 512 512" xml:space="preserve"><g><path fill="#66ccff" d="m12.532 231.909 88.81-43.16-24.673-14.152C79.243 171.424 121.857 61 241 61h150V0H241C147.065 0 62.782 57.323 24.461 144.652L0 131.195z" opacity="1" data-original="#66ccff"></path><path fill="#59abff" d="m500.468 280.091-89.81 43.16 24.673 14.152C432.757 340.576 390.143 451 271 451H121v61h150c93.935 0 178.218-57.323 216.539-144.652L512 380.805z" opacity="1" data-original="#59abff"></path><path fill="#4d5e80" d="M121.72 271.508C55.766 270.842.5 324.462.5 391.498c0 36.8 16.67 71.07 45.08 93.74 2.93 2.34 29.78 5.08 31.77-1.6 5.65-18.92 23.39-32.14 43.15-32.14 19.727 0 37.475 13.17 43.15 32.14 2.81 9.44 28.84 3.94 31.78 1.6 28.41-22.68 45.07-56.96 45.07-93.74 0-65.76-53.17-119.34-118.78-119.99z" opacity="1" data-original="#4d5e80"></path><path fill="#3d4566" d="M121.72 271.508c-.408-.004-.813.003-1.22.003v179.987c19.727 0 37.475 13.17 43.15 32.14 2.81 9.44 28.84 3.94 31.78 1.6 28.41-22.68 45.07-56.96 45.07-93.74 0-65.76-53.17-119.34-118.78-119.99z" opacity="1" data-original="#3d4566"></path><path fill="#ff7f40" d="M192.39 475.058c-6.312-21.17-29.063-53.56-71.89-53.56-43.132 0-65.67 32.698-71.89 53.56l-3.03 10.18c15.275 12.2 40.711 26.26 74.92 26.26 19.659 0 48.119-4.92 74.93-26.26z" opacity="1" data-original="#ff7f40"></path><path fill="#f25a3c" d="m195.43 485.238-3.04-10.18c-6.312-21.17-29.063-53.56-71.89-53.56v90c19.659 0 48.119-4.92 74.93-26.26z" opacity="1" data-original="#f25a3c"></path><path fill="#ffd9b3" d="M120.5 421.498c-24.813 0-45-20.187-45-45s20.187-45 45-45 45 20.187 45 45-20.187 45-45 45z" opacity="1" data-original="#ffd9b3"></path><path fill="#ffbb99" d="M165.5 376.498c0-24.813-20.187-45-45-45v90c24.813 0 45-20.187 45-45z" opacity="1" data-original="#ffbb99"></path><path fill="#4d5e80" d="M392.72.508C326.766-.158 271.5 53.462 271.5 120.498c0 36.8 16.67 71.07 45.08 93.74 2.93 2.34 29.78 5.08 31.77-1.6 5.65-18.92 23.39-32.14 43.15-32.14 19.727 0 37.475 13.17 43.15 32.14 2.81 9.44 28.84 3.94 31.78 1.6 28.41-22.68 45.07-56.96 45.07-93.74 0-65.76-53.17-119.34-118.78-119.99z" opacity="1" data-original="#4d5e80"></path><path fill="#3d4566" d="M392.72.508c-.408-.004-.813.003-1.22.003v179.987c19.727 0 37.475 13.17 43.15 32.14 2.81 9.44 28.84 3.94 31.78 1.6 28.41-22.68 45.07-56.96 45.07-93.74 0-65.76-53.17-119.34-118.78-119.99z" opacity="1" data-original="#3d4566"></path><path fill="#ff7f40" d="M463.39 204.058c-6.312-21.17-29.063-53.56-71.89-53.56-43.132 0-65.67 32.698-71.89 53.56l-3.03 10.18c15.275 12.2 40.711 26.26 74.92 26.26 19.659 0 48.119-4.92 74.93-26.26z" opacity="1" data-original="#ff7f40"></path><path fill="#f25a3c" d="m466.43 214.238-3.04-10.18c-6.312-21.17-29.063-53.56-71.89-53.56v90c19.659 0 48.119-4.92 74.93-26.26z" opacity="1" data-original="#f25a3c"></path><path fill="#ffd9b3" d="M391.5 150.498c-24.813 0-45-20.187-45-45s20.187-45 45-45 45 20.187 45 45-20.187 45-45 45z" opacity="1" data-original="#ffd9b3"></path><path fill="#ffbb99" d="M436.5 105.498c0-24.813-20.187-45-45-45v90c24.813 0 45-20.187 45-45z" opacity="1" data-original="#ffbb99"></path></g></svg>