<svg xmlns="http://www.w3.org/2000/svg" version="1.1" xmlns:xlink="http://www.w3.org/1999/xlink" width="512" height="512" x="0" y="0" viewBox="0 0 58 58" style="enable-background:new 0 0 512 512" xml:space="preserve" class=""><g><g fill="none" fill-rule="evenodd"><path fill="#95a5a5" d="M57.855 26.281a1.787 1.787 0 0 0-1.5-1.54L52.5 24.11a23.852 23.852 0 0 0-3.427-8.261l2.275-3.18a1.8 1.8 0 0 0-.018-2.157A23.808 23.808 0 0 0 49.5 8.5a26.954 26.954 0 0 0-2.012-1.83 1.8 1.8 0 0 0-2.157-.018l-3.18 2.275A23.852 23.852 0 0 0 33.89 5.5l-.631-3.851a1.787 1.787 0 0 0-1.54-1.5 25.565 25.565 0 0 0-5.438 0c-.79.1-1.418.713-1.54 1.5L24.11 5.5a23.852 23.852 0 0 0-8.261 3.427l-3.18-2.275a1.8 1.8 0 0 0-2.157.018A26.954 26.954 0 0 0 8.5 8.5a23.808 23.808 0 0 0-1.83 2.012 1.8 1.8 0 0 0-.018 2.157l2.275 3.18A23.852 23.852 0 0 0 5.5 24.11l-3.851.631c-.787.122-1.4.75-1.5 1.54a25.565 25.565 0 0 0 0 5.438 1.807 1.807 0 0 0 1.5 1.54l3.851.631a23.852 23.852 0 0 0 3.427 8.261l-2.275 3.18a1.794 1.794 0 0 0 .018 2.156A26.769 26.769 0 0 0 8.5 49.5a31.536 31.536 0 0 0 2.011 1.831 1.8 1.8 0 0 0 2.157.018l3.18-2.275A23.852 23.852 0 0 0 24.11 52.5l.631 3.851c.122.787.75 1.4 1.54 1.5 1.808.193 3.63.193 5.438 0 .79-.1 1.418-.713 1.54-1.5l.631-3.851a23.852 23.852 0 0 0 8.261-3.427l3.18 2.275a1.8 1.8 0 0 0 2.157-.018 31.536 31.536 0 0 0 2.011-1.831c.644-.64 1.255-1.31 1.831-2.012a1.794 1.794 0 0 0 .018-2.156l-2.275-3.18A23.852 23.852 0 0 0 52.5 33.89l3.851-.631a1.807 1.807 0 0 0 1.5-1.54c.193-1.808.193-3.63 0-5.438z" opacity="1" data-original="#95a5a5" class=""></path><path fill="#955ba5" d="M29 10c10.493 0 19 8.507 19 19h-5.05A1.9 1.9 0 0 0 41 30.9a2.8 2.8 0 0 1-.07.75A3 3 0 0 1 35 31v-.02A1.891 1.891 0 0 0 33.14 29H29z" opacity="1" data-original="#955ba5"></path><path fill="#24ae5f" d="M10 29c0-10.493 8.507-19 19-19v5.14A1.891 1.891 0 0 0 30.98 17H31a3 3 0 0 1 .65 5.93 2.8 2.8 0 0 1-.75.07 1.9 1.9 0 0 0-1.9 1.95V29z" opacity="1" data-original="#24ae5f"></path><path fill="#f0c419" d="M29 48c-10.493 0-19-8.507-19-19h5.14A1.891 1.891 0 0 0 17 27.02V27a3 3 0 0 1 5.93-.65 2.8 2.8 0 0 1 .07.75 1.9 1.9 0 0 0 1.95 1.9H29z" opacity="1" data-original="#f0c419"></path><path fill="#ff5364" d="M48 29c0 10.493-8.507 19-19 19v-5.05A1.9 1.9 0 0 0 27.1 41a2.8 2.8 0 0 1-.75-.07A3 3 0 0 1 27 35h.02A1.891 1.891 0 0 0 29 33.14V29h4.14A1.891 1.891 0 0 1 35 30.98V31a3 3 0 0 0 5.93.65 2.8 2.8 0 0 0 .07-.75 1.9 1.9 0 0 1 1.95-1.9z" opacity="1" data-original="#ff5364"></path></g></g></svg>