<svg xmlns="http://www.w3.org/2000/svg" version="1.1" xmlns:xlink="http://www.w3.org/1999/xlink" width="512" height="512" x="0" y="0" viewBox="0 0 510 510" style="enable-background:new 0 0 512 512" xml:space="preserve" fill-rule="evenodd" class=""><g><path fill="#f6dccd" d="M357.271 490.124H176.209c-7.593-42.564-33.27-58.884-77-48.96-29.174 5.073-43.477.977-42.847-12.255-.158-20.51-3.655-27.977-8.948-31.947-11.72-9.01 1.323-20.636 14.745-27.914-11.279-.882-25.772-9.955-22.653-17.233 5.01-17.076 2.647-23.944-5.072-27.946-14.997-7.34-18.084-16.697-9.168-28.039 10.334-11.216 18.493-22.621 24.543-34.184 5.544-10.68 7.561-21.235 6.364-33.207a172.94 172.94 0 0 1-.82-16.761c0-91.807 74.416-166.254 166.223-166.254 91.839 0 166.255 74.447 166.255 166.254 0 40.958-14.808 78.449-39.382 107.434-7.939 9.357-12.319 19.502-13.642 31.726-4.253 38.72 5.356 83.647 27.536 131.315.819 1.796.693 3.718-.347 5.356-1.071 1.67-2.772 2.615-4.725 2.615z" opacity="1" data-original="#f6dccd" class=""></path><path fill="#f1cbbc" d="M357.271 490.124h-33.617c1.954 0 3.655-.945 4.726-2.615 1.04-1.638 1.166-3.56.347-5.356-22.18-47.668-31.789-92.595-27.536-131.315 1.323-12.224 5.702-22.369 13.642-31.726 24.574-28.985 39.382-66.476 39.382-107.434 0-86.136-65.5-156.991-149.431-165.403a163.907 163.907 0 0 1 16.792-.851c91.839 0 166.255 74.447 166.255 166.254 0 40.958-14.808 78.449-39.382 107.434-7.939 9.357-12.319 19.502-13.642 31.726-4.253 38.72 5.356 83.647 27.536 131.315.819 1.796.693 3.718-.347 5.356-1.071 1.67-2.772 2.615-4.725 2.615zm-253.242-49.968c-1.606.315-3.213.63-4.82 1.008-15.91 2.741-27.378 2.804-34.435.126l.819-.126c14.902-3.402 27.725-3.717 38.436-1.008z" opacity="1" data-original="#f1cbbc"></path><path fill="#8ac9fe" d="M426.831 281.293H411.03a3.001 3.001 0 0 1-2.419-4.775l34.715-47.316a4.997 4.997 0 0 1 7.865-.252l39.687 47.417a3.002 3.002 0 0 1-2.301 4.926h-14.461c0 75.493-52.45 103.033-93.468 86.245a2.963 2.963 0 0 1 .196-5.526c43.083-14.883 45.987-54.022 45.987-80.719z" opacity="1" data-original="#8ac9fe"></path><path fill="#60b7ff" d="m440.091 233.61 3.235-4.408a4.997 4.997 0 0 1 7.865-.252l39.687 47.417a3.002 3.002 0 0 1-2.301 4.926h-14.461c0 65.7-39.726 95.081-77.069 90.532 32.252-3.953 62.069-33.613 62.069-90.532h14.461a3 3 0 0 0 2.301-4.926z" opacity="1" data-original="#60b7ff"></path><path fill="#6cf5c2" d="M83.169 110.865H98.97a3.001 3.001 0 0 1 2.419 4.775l-34.715 47.316a4.997 4.997 0 0 1-7.865.252l-39.687-47.417a3.002 3.002 0 0 1 2.301-4.926h14.461c0-75.493 52.45-103.032 93.468-86.245a2.963 2.963 0 0 1-.196 5.526c-43.083 14.883-45.987 54.022-45.987 80.719z" opacity="1" data-original="#6cf5c2"></path><path fill="#00e499" d="M100.447 20.079c9.726-.791 19.609.736 28.905 4.541a2.963 2.963 0 0 1-.196 5.526c-43.083 14.883-45.987 54.022-45.987 80.719h-10c0-26.697 2.904-65.836 45.987-80.719a2.963 2.963 0 0 0 .196-5.526 63.392 63.392 0 0 0-18.905-4.541zM88.97 110.865h10a3.001 3.001 0 0 1 2.419 4.775l-34.715 47.316a4.997 4.997 0 0 1-7.865.252l-1.236-1.477 33.816-46.091a3.001 3.001 0 0 0-2.419-4.775z" opacity="1" data-original="#00e499"></path><path fill="#fe646f" d="M210.548 242.527h-3.631v-.739a28.237 28.237 0 0 1-13.234-7.325 27.633 27.633 0 0 1-8.002-19.45c0-1.17-.985-2.093-2.154-2.093-1.17 0-2.093.923-2.093 2.093a31.95 31.95 0 0 0 4.062 15.573l2.77 4.862-4.493 3.324c-.492.431-1.046.739-1.539 1.046-2.647 1.601-5.663 2.401-8.74 2.401-4.309 0-8.495-1.662-11.695-4.555a17.468 17.468 0 0 1-5.54-11.326c-.123-1.169-1.17-2.031-2.339-1.969-.123.061-.308.061-.493.123l-.123.061h-.123c-2.4.739-4.986.924-7.509.554l-13.48-1.908 10.156-9.048c3.016-2.708 5.293-6.155 6.648-9.972.369-1.108-.185-2.277-1.293-2.646-1.108-.37-2.278.184-2.647 1.292-1.292 3.816-3.816 7.14-7.14 9.479-3.262 2.339-7.202 3.57-11.264 3.57-3.139 0-6.217-.677-9.048-2.092a19.09 19.09 0 0 1-7.571-7.264c-1.847-3.077-2.77-6.586-2.77-10.156 0-3.078.677-6.094 2.092-8.863l.124-.247c.307-.615.369-1.354 0-1.969a21.78 21.78 0 0 1-2.032-5.355 21.066 21.066 0 0 1 1.047-13.05c1.662-3.816 4.37-7.017 7.879-9.11l-.185-.984 6.155-1.478c.923-.184 1.539-.985 1.601-1.969.123-5.232 2.339-10.157 6.032-13.788 3.754-3.632 8.74-5.725 13.972-5.725.862 0 1.662.062 2.462.185.616.062 1.231.185 1.847.308h.123l.431.123c1.108.246 2.216-.493 2.462-1.6a20.25 20.25 0 0 1 4.678-8.864l8.371-9.295 2.524 12.249a24.43 24.43 0 0 0 1.046 3.632c1.047 2.77 2.586 5.294 4.494 7.51.738.861 2.092.923 2.954.184.862-.8.985-2.154.185-3.016-1.601-1.785-2.832-3.878-3.693-6.155-.862-2.216-1.293-4.617-1.293-7.079 0-5.293 2.154-10.402 5.909-14.157s8.802-5.847 14.157-5.847c3.078 0 6.156.677 8.925 2.092 2.647 1.293 4.986 3.201 6.833 5.54l.123.185.123.123c.185.308.492.554.862.738 1.046.431 2.277-.061 2.77-1.107 1.477-3.447 4.001-6.402 7.201-8.495a19.555 19.555 0 0 1 10.587-3.139 19.373 19.373 0 0 1 13.727 5.663 19.424 19.424 0 0 1 5.724 13.788c0 1.169.924 2.093 2.093 2.093 1.17 0 2.154-.924 2.154-2.093 0-2.955-.554-5.848-1.6-8.556l-2.031-5.294 4.986-2.585c.861-.492 1.723-.862 2.646-1.231 3.386-1.416 7.079-2.093 10.772-2.093 7.633 0 14.896 3.016 20.313 8.433a28.687 28.687 0 0 1 8.432 20.374c0 7.633-3.016 14.896-8.432 20.312-5.417 5.417-12.68 8.433-20.313 8.433-4.986 0-9.848-1.231-14.157-3.693-4.37-2.4-7.94-5.971-10.526-10.218a2.174 2.174 0 0 0-2.893-.738c-.184.123-.431.307-.554.492l-.123.185-.123.123c-2.462 2.77-5.54 4.739-9.048 5.847a20.767 20.767 0 0 1-11.141.247c-3.324-.924-6.34-2.586-8.802-4.986-2.462-2.401-4.247-5.417-5.232-8.679-.37-1.108-1.478-1.785-2.585-1.416-1.108.308-1.786 1.477-1.416 2.585 1.169 3.94 3.324 7.571 6.34 10.464 2.954 2.955 6.586 4.986 10.587 6.094a24.476 24.476 0 0 0 13.48-.308c1.847-.554 3.57-1.354 5.232-2.339l4.186-2.523 3.508 3.447c2.093 2.092 4.493 3.877 7.079 5.355 4.924 2.77 10.464 4.308 16.188 4.308 8.741 0 17.112-3.508 23.267-9.663 6.032-6.033 9.479-13.973 9.664-22.467l.369-13.85 10.28 9.356a19.812 19.812 0 0 1 1.6 1.601 27.42 27.42 0 0 1 7.14 17.973c0 .739.431 1.416 1.046 1.785 3.817 2.155 7.079 5.171 9.295 8.925 2.216 3.632 3.324 7.818 3.324 12.065 0 1.846-.185 3.755-.616 5.54-.431 1.846-1.108 3.57-1.969 5.293a2.064 2.064 0 0 0 .307 2.278 22.745 22.745 0 0 1 4.247 7.017 21.882 21.882 0 0 1 1.478 7.94c0 .369 0 .739-.062 1.169l-.554 11.634-9.479-6.832c-.369-.308-.8-.554-1.169-.801-3.878-2.462-8.249-3.754-12.803-3.754-1.17 0-2.155.985-2.155 2.154 0 1.17.985 2.093 2.155 2.093a19.91 19.91 0 0 1 10.525 3.016 19.948 19.948 0 0 1 7.079 7.756l.123.307.123.37a32.254 32.254 0 0 1 1.6 5.416 29.25 29.25 0 0 1 .616 6.094c0 7.325-2.893 14.28-8.002 19.451-5.171 5.17-12.126 8.063-19.451 8.063s-14.28-2.893-19.451-8.063a27.437 27.437 0 0 1-8.063-19.451 2.076 2.076 0 0 0-2.093-2.093 2.076 2.076 0 0 0-2.093 2.093c0 8.433 3.324 16.435 9.295 22.405 2.647 2.709 5.786 4.863 9.233 6.463l13.234 6.033-13.419 5.601c-.677.246-1.415.492-2.093.738v.985l-6.463-.061c-1.785 0-3.57-.185-5.293-.677h-.185l-.184-.062c-.062-.061-.124-.061-.185-.061l-.369-.124c-3.447-1.046-6.587-2.954-9.172-5.478a22.434 22.434 0 0 1-5.417-9.171h-.923v-6.525c0-1.108-.923-2.031-2.093-2.031-.8 0-1.538.492-1.908 1.231l-2.462 5.786-1.169-.492c-.801.861-1.724 1.538-2.709 2.216-2.77 1.846-6.093 2.769-9.417 2.769-1.231 0-2.524-.061-3.755-.307l-14.096-2.586 11.449-8.679c2.462-1.908 4.678-4.124 6.525-6.586 3.385-4.555 5.54-9.848 6.217-15.511l.492-4.124 3.939-1.231c1.909-.554 3.694-1.354 5.417-2.339a24.583 24.583 0 0 0 8.556-8.679l.431-.8a23.72 23.72 0 0 0 2.831-12.311c-.184-4.555-1.723-9.048-4.308-12.803-.678-.985-1.97-1.231-2.893-.554-.985.677-1.231 1.97-.554 2.893a20.586 20.586 0 0 1 3.57 10.649c.061 1.6-.062 3.262-.431 4.862l.985.493-3.263 5.54c-1.723 2.954-4.124 5.416-7.078 7.14l-6.709 4.001-2.586-7.325a32.536 32.536 0 0 0-7.817-12.557 32.935 32.935 0 0 0-23.328-9.664c-1.17 0-2.155.924-2.155 2.093 0 1.17.985 2.155 2.155 2.155 7.632 0 14.895 3.016 20.312 8.371a28.787 28.787 0 0 1 8.433 20.374c0 6.093-1.97 11.941-5.602 16.804a29.524 29.524 0 0 1-13.049 9.848l-.492.185-.493.123c-.123 0-.246 0-.307.061-.124.062-.247.062-.308.124l-.185.123-.185.061c-.061 0-.061.062-.123.062l-.43.246-.431.123c-2.155.862-4.986.862-7.264.862h-1.231l16.189 9.971c3.447 2.155 7.509 3.14 11.572 3.14 3.693 0 7.263-.924 10.525-2.77l5.417-3.016 3.139 5.355c1.108 1.969 2.524 3.754 4.063 5.355a25.68 25.68 0 0 0 8.679 5.724l2.031.862 9.602 16.558c1.724 3.016 2.154 6.647 1.231 9.971a12.916 12.916 0 0 1-5.417 7.633l-.307.185-.308.123c-.062.061-.123.123-.185.123l-.369.246-.369.185c-2.893 1.354-6.094 1.662-9.11.8-3.078-.8-5.725-2.585-7.51-5.171l-.246-.369-.185-.431c-.061-.123-.123-.185-.184-.308l-.185-.246-12.064-20.866c-.493-.924-1.601-1.293-2.524-.924-.677.247-1.292.431-1.97.616-5.662 1.539-11.141-.308-15.634-3.878-3.509-2.77-6.402-6.524-8.556-10.464zm-23.882-85.313c.246-1.169-.431-2.277-1.539-2.523a23.636 23.636 0 0 0-12.249.246c-4.001 1.108-7.632 3.201-10.525 6.155-3.263 3.263-5.479 7.325-6.525 11.818-.985 4.494-.739 9.172.8 13.542.431 1.108 1.6 1.662 2.708 1.231 1.108-.369 1.662-1.539 1.293-2.647a20.43 20.43 0 0 1-.739-11.202c.862-3.693 2.77-7.079 5.417-9.787a20.086 20.086 0 0 1 8.679-5.109 20.519 20.519 0 0 1 10.218-.185c1.108.247 2.216-.431 2.462-1.539z" opacity="1" data-original="#fe646f" class=""></path><path fill="#fd4755" fill-rule="nonzero" d="M151.15 114.004c3.57-2.954 7.756-5.17 12.434-6.278 1.415-2.708 3.262-5.171 5.355-7.325 5.539-5.54 13.234-8.987 21.666-8.987 4.863 0 9.479 1.17 13.604 3.263.923.431 1.785.985 2.646 1.477a28.871 28.871 0 0 1 4.801-3.878c4.74-3.077 10.341-4.924 16.373-4.924 6.587 0 12.68 2.154 17.605 5.724a38.628 38.628 0 0 1 6.155-3.139c4.555-1.846 9.541-2.831 14.711-2.831 10.833 0 20.682 4.37 27.76 11.51 2.278 2.278 4.309 4.801 5.971 7.571 7.51 1.662 14.157 5.601 19.205 11.08a38.134 38.134 0 0 1 9.54 20.251 36.326 36.326 0 0 1 9.233 10.156c3.078 5.17 4.863 11.141 4.863 17.481 0 2.647-.369 5.355-.985 8.002a17.067 17.067 0 0 1-.739 2.523 34.709 34.709 0 0 1 2.955 5.848 32.567 32.567 0 0 1 2.154 11.695c0 4.124-.738 8.063-2.277 11.818-.8 2.093-1.908 4.124-3.139 5.971.184.861.431 1.723.615 2.647.554 2.708.862 5.478.862 8.186 0 10.526-4.247 20.005-11.141 26.899-5.663 5.663-13.049 9.54-21.297 10.771a33.19 33.19 0 0 1-9.541 9.664 31.956 31.956 0 0 1-9.787 4.37l2.893 4.863c3.262 5.663 3.878 12.188 2.339 18.035-1.6 5.848-5.355 11.08-11.018 14.404a2.853 2.853 0 0 0-.616.307c-5.539 2.955-11.756 3.57-17.419 2.032-5.848-1.539-11.08-5.356-14.342-11.08l-9.171-15.881c-7.756.862-14.835-1.908-20.682-6.586-6.217-4.862-11.08-12.003-13.849-19.081-.739-1.785-1.293-3.386-1.662-4.924a28.991 28.991 0 0 1-.739-3.14c-5.54-.984-10.71-3.2-15.142-6.278-1.17.985-2.401 1.908-3.755 2.708-4.185 2.401-8.987 3.817-14.095 3.817-7.264 0-13.85-2.77-18.836-7.325-2.893-2.647-5.17-5.909-6.77-9.541a28.684 28.684 0 0 1-9.91-1.97c-4.001-1.538-7.633-4.124-10.588-7.447h-.738c-5.109 0-9.787-1.232-13.911-3.386-4.986-2.585-8.987-6.525-11.757-11.141-2.77-4.678-4.308-10.033-4.308-15.573 0-3.324.554-6.648 1.723-9.971a35.106 35.106 0 0 1-1.231-4.124c-1.539-6.587-.923-13.481 1.662-19.513a30.028 30.028 0 0 1 13.357-14.711c.615-.369 1.293-.677 1.97-.985 1.354-5.847 4.37-11.018 8.494-15.08 5.478-5.294 12.926-8.618 21.051-8.679a30.303 30.303 0 0 1 7.448-9.295zm9.479 14.219c-1.539 1.662-2.647 3.755-3.201 6.094-1.046 4.493-5.601 7.325-10.094 6.278l-.37-.123c-.431-.061-.861-.123-1.354-.185a13.203 13.203 0 0 0-1.662-.123c-3.693 0-7.078 1.539-9.54 3.94-2.463 2.4-4.063 5.724-4.125 9.417-.123 3.878-2.893 7.14-6.524 8.002-1.354.308-2.524.739-3.57 1.354-2.647 1.416-4.678 3.755-5.848 6.525-1.169 2.77-1.477 5.909-.738 9.048.307 1.354.8 2.585 1.415 3.755a8.295 8.295 0 0 1 0 8.125 13.33 13.33 0 0 0-1.415 6.032c0 2.524.677 4.863 1.846 6.894 1.231 2.031 2.955 3.755 5.109 4.863 1.724.923 3.755 1.415 6.094 1.415 2.831 0 5.478-.861 7.571-2.4a12.998 12.998 0 0 0 4.863-6.402c1.477-4.37 6.278-6.709 10.648-5.17 4.432 1.477 6.771 6.278 5.232 10.71-1.662 4.863-4.616 9.233-8.371 12.619 1.539.184 3.201.123 4.801-.37.616-.246 1.293-.369 2.031-.431 4.617-.431 8.741 3.016 9.11 7.694.246 2.832 1.601 5.356 3.57 7.202 1.908 1.785 4.555 2.893 7.387 2.893 2.031 0 3.939-.554 5.478-1.477.369-.246.738-.431 1.046-.677a37.887 37.887 0 0 1-4.924-18.712c0-4.678 3.816-8.433 8.433-8.433 4.678 0 8.494 3.755 8.494 8.433 0 5.847 2.339 11.141 6.155 14.957 3.817 3.816 9.11 6.155 14.958 6.155h.123v.062h1.292c2.093 0 4.124-.062 5.048-.431.184-.062.369-.185.492-.246.431-.246.8-.431 1.231-.554.37-.123.8-.246 1.17-.308 4.124-1.6 7.694-4.309 10.279-7.756a21.648 21.648 0 0 0 4.309-12.987c0-6.217-2.524-11.818-6.586-15.881-4.063-4.062-9.664-6.525-15.819-6.525-4.679 0-8.495-3.816-8.495-8.494s3.816-8.433 8.495-8.433a39.218 39.218 0 0 1 27.821 11.511c4.124 4.185 7.387 9.294 9.356 14.957h.062c1.908-1.169 3.632-2.831 4.801-4.924l.062-.062h-.062c1.354-2.339 1.97-4.924 1.847-7.386-.123-2.585-.924-5.109-2.462-7.263-2.647-3.878-1.662-9.11 2.154-11.757s9.11-1.662 11.757 2.155c3.262 4.801 5.17 10.402 5.416 16.188.185 5.601-1.108 11.326-4.124 16.496a30.323 30.323 0 0 1-10.833 10.957c-2.093 1.292-4.37 2.277-6.771 3.016-.8 6.894-3.447 13.234-7.386 18.527-2.216 2.955-4.863 5.601-7.818 7.879.801.123 1.662.184 2.586.184 2.216 0 4.247-.615 5.97-1.723a10.698 10.698 0 0 0 3.94-4.678 8.455 8.455 0 0 1 7.755-5.109 8.407 8.407 0 0 1 8.433 8.433v.123h.062c0 4.37 1.662 8.248 4.432 11.018 1.846 1.785 4.062 3.201 6.524 3.939.246.062.431.123.677.185 1.17.308 2.401.431 3.693.431h.123c2.093 0 4.125-.431 5.971-1.17a38.679 38.679 0 0 1-11.079-7.755c-6.894-6.894-11.141-16.373-11.141-26.899 0-4.678 3.754-8.433 8.432-8.433s8.433 3.755 8.433 8.433c0 5.848 2.401 11.141 6.217 14.957 3.816 3.817 9.11 6.217 14.957 6.217 5.848 0 11.141-2.4 14.958-6.217 3.816-3.816 6.155-9.109 6.155-14.957 0-1.723-.185-3.324-.493-4.801-.246-1.477-.738-2.955-1.292-4.493-1.108-2.155-2.77-3.94-4.801-5.294a13.425 13.425 0 0 0-7.14-2.031c-4.678 0-8.495-3.755-8.495-8.433s3.817-8.494 8.495-8.494c5.909 0 11.448 1.723 16.188 4.739.492.308.985.677 1.477.985.062-.246.062-.554.062-.8 0-2.093-.37-4.001-1.047-5.663-.677-1.847-1.785-3.57-3.077-5.109-2.216-2.462-2.832-6.217-1.17-9.356a17.2 17.2 0 0 0 1.416-3.878c.308-1.231.431-2.585.431-4.062 0-3.262-.862-6.279-2.401-8.802a18.073 18.073 0 0 0-6.955-6.648 8.47 8.47 0 0 1-4.309-7.202c-.061-5.355-2.154-10.217-5.478-13.788-.369-.43-.8-.861-1.231-1.231a38.914 38.914 0 0 1-11.511 26.714c-7.078 7.141-16.927 11.511-27.76 11.511a39.485 39.485 0 0 1-19.328-5.048c-3.077-1.785-5.909-3.877-8.371-6.34a29.717 29.717 0 0 1-6.586 2.893c-5.355 1.724-11.203 1.909-16.989.37-5.232-1.416-9.786-4.063-13.418-7.633-3.755-3.631-6.525-8.248-8.002-13.234-1.354-4.493 1.231-9.171 5.724-10.464 4.432-1.354 9.11 1.231 10.464 5.725.616 2.216 1.847 4.247 3.571 5.909 1.6 1.539 3.631 2.77 5.97 3.385 2.647.677 5.294.616 7.633-.123 2.4-.738 4.555-2.154 6.217-4.001a8.056 8.056 0 0 1 2.277-2.031 8.424 8.424 0 0 1 11.572 2.893c2.031 3.324 4.863 6.094 8.187 8.002 3.2 1.785 7.017 2.831 11.079 2.831 6.155 0 11.757-2.523 15.819-6.586 4.063-4.062 6.586-9.664 6.586-15.819 0-6.217-2.523-11.818-6.586-15.881-4.062-4.062-9.664-6.586-15.819-6.586-3.016 0-5.847.554-8.433 1.601-.677.307-1.354.615-2.031.984a29.99 29.99 0 0 1 2.031 10.834c0 4.616-3.816 8.432-8.494 8.432s-8.433-3.816-8.433-8.432c0-3.632-1.477-6.894-3.816-9.295-2.401-2.339-5.663-3.816-9.295-3.816-2.646 0-5.108.8-7.14 2.093-2.154 1.415-3.816 3.447-4.862 5.724-1.847 4.309-6.833 6.217-11.08 4.37a8.283 8.283 0 0 1-3.57-2.893c-1.231-1.6-2.831-2.893-4.678-3.816-1.785-.923-3.878-1.416-6.094-1.416a13.573 13.573 0 0 0-9.663 4.001 13.484 13.484 0 0 0-4.063 9.664c0 1.785.308 3.386.862 4.863a13.984 13.984 0 0 0 2.585 4.185c3.078 3.509 2.708 8.864-.8 11.942-3.509 3.077-8.802 2.708-11.88-.739-2.4-2.77-4.37-5.909-5.663-9.417a43.499 43.499 0 0 1-1.354-4.617zm118.366 158.683-8.494-14.711c-4.062-1.662-7.694-4.124-10.772-7.201a35.29 35.29 0 0 1-5.047-6.587c-4.001 2.278-8.679 3.571-13.603 3.571-5.54 0-10.649-1.416-14.896-4.063 1.785 3.262 4.185 6.34 6.955 8.494 3.016 2.401 6.525 3.694 10.034 2.77.553-.184.984-.308 1.231-.431 3.877-1.477 8.309 0 10.402 3.632l11.941 20.682c.246.369.493.738.677 1.108.924 1.354 2.339 2.277 3.878 2.708 1.601.431 3.262.308 4.74-.431.246-.123.554-.308.8-.431 1.416-.923 2.401-2.4 2.831-3.939.431-1.724.247-3.57-.677-5.171zm-92.391-138.37c4.494 1.046 7.325 5.601 6.217 10.094-1.046 4.555-5.601 7.325-10.094 6.279-2.278-.554-4.678-.493-7.017.123-2.155.615-4.186 1.785-5.91 3.508-1.908 1.97-3.139 4.247-3.693 6.709-.554 2.463-.431 5.171.493 7.633 1.539 4.37-.739 9.233-5.109 10.772-4.432 1.6-9.233-.677-10.834-5.109a30.858 30.858 0 0 1-.984-17.05c1.231-5.478 3.939-10.649 8.186-14.896 3.816-3.816 8.433-6.402 13.296-7.817 5.047-1.416 10.34-1.478 15.449-.246z" opacity="1" data-original="#fd4755" class=""></path><path fill="#ffe177" d="M407.525 36.48a84.028 84.028 0 0 1 24.63 10.209l16.005-7.101 18.857 18.857-7.101 16.005a83.987 83.987 0 0 1 10.208 24.63l16.331 6.286v26.679l-16.331 6.285a84.058 84.058 0 0 1-10.208 24.619l7.101 16.005-18.857 18.868-16.005-7.112a84.054 84.054 0 0 1-24.63 10.22l-6.286 16.319H374.56l-6.285-16.33a84.065 84.065 0 0 1-24.619-10.209l-16.005 7.112-18.868-18.868 7.112-15.994a84.301 84.301 0 0 1-10.22-24.63l-16.32-6.285v-26.679l16.32-6.286a84.043 84.043 0 0 1 10.22-24.63l-7.112-16.005 18.868-18.857 15.993 7.101a84.27 84.27 0 0 1 24.631-10.209l6.285-16.331h26.679z" opacity="1" data-original="#ffe177"></path><path fill="#ffd064" d="m442.782 41.974 5.378-2.386 18.857 18.857-7.101 16.005a83.987 83.987 0 0 1 10.208 24.63l16.331 6.286v26.679l-16.331 6.285a84.058 84.058 0 0 1-10.208 24.619l7.101 16.005-18.857 18.868-5.378-2.386 16.482-16.482-7.112-16.005a84.087 84.087 0 0 0 10.209-24.619l16.33-6.285v-26.679l-16.33-6.286a84.017 84.017 0 0 0-10.209-24.63l7.112-16.005zm-117.517 0 2.386-2.386 15.993 7.101a73.02 73.02 0 0 0-3.34 1.967zm82.26-5.494a84.028 84.028 0 0 1 24.63 10.209l-4.412 1.967c-7.612-4.691-19.276-10.104-27.982-12.176l-6.286-16.331h7.764zm-63.869 154.23-16.005 7.112-2.386-2.386 15.039-6.681a78.098 78.098 0 0 0 3.352 1.955zm88.499 0a84.054 84.054 0 0 1-24.63 10.22l-6.286 16.319h-7.764l6.286-16.319c8.706-2.072 20.37-7.484 27.994-12.175z" opacity="1" data-original="#ffd064"></path><path fill="#eceff1" d="M387.9 61.402c31.649 0 57.303 25.654 57.303 57.303 0 31.638-25.654 57.292-57.303 57.292-31.638 0-57.292-25.654-57.292-57.292 0-31.649 25.654-57.303 57.292-57.303z" opacity="1" data-original="#eceff1"></path><path fill="#d1d1d6" d="M387.9 61.402c1.303 0 2.595.046 3.887.139-29.833 1.991-53.427 26.819-53.427 57.164 0 30.334 23.594 55.162 53.427 57.164a61.262 61.262 0 0 1-3.887.128c-31.638 0-57.292-25.654-57.292-57.292 0-31.649 25.654-57.303 57.292-57.303z" opacity="1" data-original="#d1d1d6"></path></g></svg>