<svg xmlns="http://www.w3.org/2000/svg" version="1.1" xmlns:xlink="http://www.w3.org/1999/xlink" width="512" height="512" x="0" y="0" viewBox="0 0 512 512" style="enable-background:new 0 0 512 512" xml:space="preserve" class=""><g><path fill="#60b7ff" d="M222.433 476.614c-.011.132-.02.264-.028.396l41.461 9.154c3.013 0 12.176-6.151 11.926-9.154l-5.846-120.575-39.018 18.239z" opacity="1" data-original="#60b7ff"></path><path fill="#26a6fe" d="M264.795 477.01h-42.39c-.566 9.47 6.965 17.513 16.507 17.513h32.543c9.674 0 17.282-8.268 16.479-17.909l-8.495-101.94-12.664-18.239-4.91 18.239 8.063 96.757a5.15 5.15 0 0 1-5.133 5.579z" opacity="1" data-original="#26a6fe"></path><path fill="#5de1c4" d="m146.426 254.411-23.779 30.324-27.33-33.378c-4.721-4.721-7.602-4.801-14.275-5.031-7.221-.248-8.282-3.417-13.37 1.671l-31.196 32.811c-2.019 2.009-17.178-5.19-19.198-7.199l-4.855-19.884 56.742-56.742c6.057-6.047 15.875-6.047 21.922 0l18.78 18.78c6.605 15.565 25.083 25.709 36.559 38.648z" opacity="1" data-original="#5de1c4"></path><path fill="#0ed2b3" d="m190.634 234.367-38.93 38.93-15.247 15.247c-6.047 6.047-15.865 6.047-21.922 0l-30.751-30.761c-2.019-2.019-5.295-2.019-7.304 0l-40.908 40.908a5.171 5.171 0 0 1-7.314 0L1.515 271.948a5.171 5.171 0 0 1 0-7.314l10.91-10.91 15.844 15.844a5.167 5.167 0 0 0 7.294 0l26.342-26.352c5.088-5.088 11.917-7.784 19.139-7.536 6.673.229 12.962 3.189 17.683 7.91l23.134 23.134a5.15 5.15 0 0 0 7.283 0l4.568-4.568a5.143 5.143 0 0 0 .306-6.937c-10.047-12.02-18.145-25.304-24.149-39.457l11.981 11.981a5.165 5.165 0 0 0 7.304 0l31.956-31.956c6.654 15.113 16.843 28.32 29.524 38.58z" opacity="1" data-original="#0ed2b3" class=""></path><path fill="#918291" d="M283.355 277.899c24.743-4.055 45.321-12.104 63.119-29.902 22.575-22.574 38.91-63.435 38.977-95.173.16-76.465-75.627-156.926-194.508-119.388-11.883 6.314-23.033 14.5-33.012 24.561-53.277 53.71-53.093 139.811.401 193.304 21.06 21.06 47.272 33.828 74.579 38.304 2.842.466 4.855 3.02 4.616 5.891l-6.598 79.179h30.936l4.619-79.032c-.991-11.879 5.093-15.811 16.871-17.744z" opacity="1" data-original="#918291"></path><path fill="#7a6d79" d="M277.456 289.605c27.307-4.476 53.518-17.244 74.579-38.304 53.494-53.493 53.678-139.595.401-193.304-43.61-43.966-109.562-52.153-161.493-24.562 112.103-21.354 183.979 44.793 183.819 121.258-.067 31.738-12.536 61.65-35.11 84.224-17.799 17.798-40.285 29.349-65.028 33.405-11.778 1.933-20.227 12.751-19.236 24.629l6.477 77.723h17.574l-6.598-79.179c-.24-2.87 1.773-5.424 4.615-5.89z" opacity="1" data-original="#7a6d79"></path><path fill="#eaf6ff" d="M241.469 246.326c56.735 0 108.496-55.748 108.496-112.483 0-17.382-10.793-33.755-18.413-48.106-18.804-20.886-46.053-34.018-76.368-34.018-56.735 0-102.728 45.993-102.728 102.728 0 14.706 3.09 28.69 8.657 41.339 1.013 2.301 7.483 1.441 8.656 3.65 18.804 20.886 41.385 46.89 71.7 46.89z" opacity="1" data-original="#eaf6ff"></path><path fill="#c4e2ff" d="M331.551 85.737c7.62 14.351 11.937 30.724 11.937 48.106 0 56.735-45.993 102.728-102.728 102.728-16.084 0-31.304-3.696-44.858-10.286-11.993-5.831-16.288-16.244-25.116-26.049 6.47 12.185 8.927 25.229 19.538 33.879 17.686 14.416 40.262 23.06 64.858 23.06 56.735 0 102.728-45.993 102.728-102.728.001-26.42-9.972-50.509-26.359-68.71z" opacity="1" data-original="#c4e2ff"></path><path fill="#5de1c4" d="M225.617 201.98c6.673.232 4.442-1.813 9.162 2.91l7.83 1.745c2.011 2.012 9.356 3.321 11.368 1.309l37.632-41.886c4.721-4.721 9.362-8.059 16.034-8.29 7.226-.25 9.749 6.259 14.835 11.344l41.886 40.024c2.011 2.012 15.441 4.746 17.452 2.734l87.698-87.733c4.868-4.869 11.44-8.255 18.325-8.255l5.236-7.375c10.782 6.637 10.035-3.831 10.035-5.714L491.396 62.21h-49.124c-4.604 0-6.909 5.566-3.654 8.821l11.605 11.605a5.168 5.168 0 0 1 0 7.308l-71.568 71.559a5.168 5.168 0 0 1-7.308 0l-53.481-53.481c-6.054-6.054-15.868-6.054-21.922-.001l-48.053 48.045a5.168 5.168 0 0 1-7.308 0l-8.914-8.914c-6.054-6.054-15.869-6.054-21.923 0l-48.633 48.633a102.751 102.751 0 0 0 14.871 24.09l31.745-17.894c5.084-5.088 10.659-.252 17.888-.001z" opacity="1" data-original="#5de1c4"></path><path fill="#0ed2b3" d="M506.833 62.21h-15.436v36.304c0 1.883-1.548 3.359-3.432 3.356h-.035c-6.885 0-13.357 2.681-18.225 7.55l-91.061 91.061a5.15 5.15 0 0 1-7.285 0l-46.231-46.238c-5.086-5.085-11.92-7.784-19.146-7.533-6.672.231-12.96 3.192-17.68 7.912l-40.419 40.419a5.15 5.15 0 0 1-7.285-.001l-1.283-1.284c-4.72-4.723-11.009-7.685-17.682-7.917-7.229-.252-14.066 2.448-19.151 7.535l-26.498 26.501a103.36 103.36 0 0 0 14.649 14.489l26.42-26.423a5.168 5.168 0 0 1 7.309.001l8.913 8.917c6.054 6.056 15.871 6.057 21.926.002l48.05-48.05a5.167 5.167 0 0 1 7.308.001l53.48 53.488c6.054 6.055 15.87 6.055 21.924.001l98.313-98.313a5.168 5.168 0 0 1 7.309.001l11.594 11.599c3.255 3.256 8.822.951 8.822-3.653V67.378a5.17 5.17 0 0 0-5.168-5.168z" opacity="1" data-original="#0ed2b3" class=""></path></g></svg>