<svg xmlns="http://www.w3.org/2000/svg" version="1.1" xmlns:xlink="http://www.w3.org/1999/xlink" width="512" height="512" x="0" y="0" viewBox="0 0 64 64" style="enable-background:new 0 0 512 512" xml:space="preserve" class=""><g><path fill="#9a4738" d="M32 13.22V17h-1c-1.1 0-2 .9-2 2V9c0-1.13.31-2.18.85-3.08a6.036 6.036 0 0 1 3.85-2.78c.42-.09.85-.14 1.3-.14h5.53c2.94 0 5.84-.68 8.47-2v6.5c0 .17-.01.33-.02.5A6.476 6.476 0 0 1 46 12.97v.01A6.523 6.523 0 0 1 42.5 14H39v-4s-1.1 1.38-3.02 2.69c-1.26.86-2.72.97-3.98.53z" opacity="1" data-original="#9a4738"></path><path fill="#ae6c60" d="M36.084 6.621c1.773-.9 3.006-2.286 3.412-3.621H35c-.45 0-.88.05-1.3.14a6.036 6.036 0 0 0-3.85 2.78c-.047.079-.083.165-.126.246.987 1.552 3.755 1.777 6.36.455z" opacity="1" data-original="#ae6c60"></path><path fill="#fcb984" d="M63 60v2a1 1 0 0 1-1 1H2a1 1 0 0 1-1-1v-2a1 1 0 0 1 1-1h60a1 1 0 0 1 1 1z" opacity="1" data-original="#fcb984"></path><path fill="#e0dae0" d="M54 36v18c0 .55-.45 1-1 1H43l-.36.03L42 48h-6l-.64 7.03L35 55H25c-.55 0-1-.45-1-1V36c0-.55.45-1 1-1h28c.55 0 1 .45 1 1z" opacity="1" data-original="#e0dae0" class=""></path><g fill="#a8a3a8"><path d="M24 54c0 .55.45 1 1 1h10l.41.03.267-3.197H24zM53 35H51.333v11.417a5.417 5.417 0 0 1-5.417 5.417h-3.594l.267 3.197L43 55h10c.55 0 1-.45 1-1V36c0-.55-.45-1-1-1z" fill="#a8a3a8" opacity="1" data-original="#a8a3a8"></path></g><path fill="#fcbfa9" d="M46 21v1a6.958 6.958 0 0 1-3 5.74c-1.13.8-2.51 1.26-4 1.26s-2.87-.46-4-1.26c-1.82-1.26-3-3.36-3-5.74v-8.78c1.26.44 2.72.33 3.98-.53C37.9 11.38 39 10 39 10v4h3.5c1.29 0 2.49-.38 3.5-1.02V17z" opacity="1" data-original="#fcbfa9"></path><path fill="#73352a" d="M47.11 1.818C45.614 6.001 41.627 9 36.93 9A7.93 7.93 0 0 0 29 16.93V19c0-1.1.9-2 2-2h1v-3.78c1.26.44 2.72.33 3.98-.53C37.9 11.38 39 10 39 10v4h3.5c1.29 0 2.49-.38 3.5-1.02v-.01A6.476 6.476 0 0 0 48.98 8c.01-.17.02-.33.02-.5V1c-.616.309-1.248.58-1.89.818z" opacity="1" data-original="#73352a"></path><path fill="#ed907a" d="M42.5 14H39v-4s-1.1 1.38-3.02 2.69c-1.26.86-2.72.97-3.98.53a3.423 3.423 0 0 0 3.423 3.423h4.628a3.423 3.423 0 0 1 3.423 3.423v7.317A6.967 6.967 0 0 0 46 22v-9.02A6.523 6.523 0 0 1 42.5 14z" opacity="1" data-original="#ed907a"></path><path fill="#ff9d5a" d="M61 59h-1.16a2 2 0 0 1-2 2H1v1a1 1 0 0 0 1 1h60a1 1 0 0 0 1-1v-2a1 1 0 0 0-1-1z" opacity="1" data-original="#ff9d5a"></path><path fill="#fcbfa9" d="M62.58 50.87c.26.69.11 1.48-.39 2.03L57 58.67V57c0-1.1-.9-2-2-2h-2c.55 0 1-.45 1-1l7-7 .11-.04z" opacity="1" data-original="#fcbfa9"></path><path fill="#235085" d="m57.62 37.65 3.49 9.31L61 47l-7 7V36c0-.55-.45-1-1-1H39v-1c2.14 0 3.88-1.68 3.99-3.79l2.97.64 5.23 1.12c2.99.64 5.42 2.79 6.43 5.68z" opacity="1" data-original="#235085"></path><path fill="#ed907a" d="M57 57v1.67l-.3.33H51v-2c0-1.1.9-2 2-2h2c1.1 0 2 .9 2 2z" opacity="1" data-original="#ed907a"></path><path fill="#235085" d="M43 55h10c-1.1 0-2 .9-2 2v2h-8l-.36-3.97z" opacity="1" data-original="#235085"></path><path fill="#9a4738" d="M49 8v11c0-.55-.22-1.05-.59-1.41-.36-.37-.86-.59-1.41-.59h-1V12.97A6.476 6.476 0 0 0 48.98 8z" opacity="1" data-original="#9a4738"></path><path fill="#fcbfa9" d="M48.41 17.59c.37.36.59.86.59 1.41 0 1.1-.9 2-2 2h-1v-4h1c.55 0 1.05.22 1.41.59z" opacity="1" data-original="#fcbfa9"></path><path fill="#e52c55" d="M46.81 21c.12.98.19 1.98.19 3 0 2.39-.36 4.69-1.04 6.85l-2.97-.64c.01-.07.01-.14.01-.21v-2.26A6.958 6.958 0 0 0 46 22v-1z" opacity="1" data-original="#e52c55" class=""></path><path fill="#ed907a" d="M43 27.74V30c0 .07 0 .14-.01.21a3.997 3.997 0 0 1-6.82 2.62c-.67-.68-1.11-1.6-1.16-2.62-.01-.07-.01-.14-.01-.21v-2.26c1.13.8 2.51 1.26 4 1.26s2.87-.46 4-1.26z" opacity="1" data-original="#ed907a"></path><path fill="#b2a6b2" d="M42.64 55.03 43 59h-8l.36-3.97L36 48h6z" opacity="1" data-original="#b2a6b2"></path><path fill="#2f6bb2" d="M39 34v1H25c-.55 0-1 .45-1 1v18l-7-7-.11-.04.36-.96 1.41-3.76 1.72-4.59a8.748 8.748 0 0 1 6.43-5.68L35 30.21h.01c.05 1.02.49 1.94 1.16 2.62C36.9 33.55 37.9 34 39 34zM35.36 55.03 35 59H24c.55 0 1-.45 1-1v-3h10z" opacity="1" data-original="#2f6bb2"></path><path fill="#e0dae0" d="M35 30c0 .07 0 .14.01.21H35l-8.19 1.76a8.748 8.748 0 0 0-6.43 5.68l-1.72 4.59C10.76 39.93 5 32.64 5 24 5 13.51 13.51 5 24 5c2.04 0 4.01.32 5.85.92-.54.9-.85 1.95-.85 3.08v10c0 .55.22 1.05.59 1.41.36.37.86.59 1.41.59h1v1c0 2.38 1.18 4.48 3 5.74z" opacity="1" data-original="#e0dae0" class=""></path><path fill="#a8a3a8" d="M35 30v-2.26c-1.82-1.26-3-3.36-3-5.74v-1h-1c-.55 0-1.05-.22-1.41-.59-.37-.36-.59-.86-.59-1.41V9c0-1.13.31-2.18.85-3.08C28.01 5.32 26.04 5 24 5c-.504 0-1 .037-1.494.076C24.914 13.741 28.031 22.969 24 27c-2.913 3.884-8.648 7.298-12.526 11.269a18.952 18.952 0 0 0 7.186 3.971l1.72-4.59a8.748 8.748 0 0 1 6.43-5.68L35 30.21h.01C35 30.14 35 30.07 35 30z" opacity="1" data-original="#a8a3a8"></path><path fill="#fcbfa9" d="M32 17v4h-1c-.55 0-1.05-.22-1.41-.59-.37-.36-.59-.86-.59-1.41 0-1.1.9-2 2-2z" opacity="1" data-original="#fcbfa9"></path><path fill="#e52c55" d="M33.7 3.14a6.036 6.036 0 0 0-3.85 2.78C28.01 5.32 26.04 5 24 5 13.51 5 5 13.51 5 24c0 8.64 5.76 15.93 13.66 18.24L17.25 46l-.09-.03C7.8 43.05 1 34.32 1 24 1 11.3 11.3 1 24 1c3.47 0 6.76.77 9.7 2.14z" opacity="1" data-original="#e52c55" class=""></path><path fill="#b2a6b2" d="M26 22v4h-4v-4h2z" opacity="1" data-original="#b2a6b2"></path><path fill="#ed907a" d="M25 55v3c0 .55-.45 1-1 1h-3c-.55 0-1-.45-1-1v-3c0-.55.45-1 1-1h3c0 .55.45 1 1 1z" opacity="1" data-original="#ed907a"></path><path fill="#fcbfa9" d="M24 54h-3c-.55 0-1 .45-1 1v2.56l-4.19-4.66c-.5-.55-.65-1.34-.39-2.03l1.47-3.91.11.04z" opacity="1" data-original="#fcbfa9"></path><path fill="#606060" d="M35 21.671a1 1 0 0 1-1-1v-1a1 1 0 0 1 2 0v1a1 1 0 0 1-1 1zM43 21.671a1 1 0 0 1-1-1v-1a1 1 0 0 1 2 0v1a1 1 0 0 1-1 1zM26 21h-1v-9.586l.293.293a.997.997 0 0 0 1.414 0 .999.999 0 0 0 0-1.414l-2-2a.999.999 0 0 0-1.414 0l-2 2a.999.999 0 1 0 1.414 1.414l.293-.293V21h-1a1 1 0 0 0-1 1v1h-5.586l.293-.293a.999.999 0 1 0-1.414-1.414l-2 2a.999.999 0 0 0 0 1.414l2 2a.997.997 0 0 0 1.414 0 .999.999 0 0 0 0-1.414L15.414 25H21v1a1 1 0 0 0 1 1h4a1 1 0 0 0 1-1v-4a1 1 0 0 0-1-1zm-1 4h-2v-2h2z" opacity="1" data-original="#606060"></path><g fill="#ffc757"><path d="M53.5 6A2.503 2.503 0 0 0 51 8.5a1 1 0 0 0 2 0 .5.5 0 0 1 1 0v.223l-2.857 4.762A1 1 0 0 0 52 15h3a1 1 0 0 0 0-2h-1.234l2.091-3.485A.997.997 0 0 0 56 9v-.5C56 7.122 54.878 6 53.5 6zM60 14a1 1 0 0 0 2 0v-2a1 1 0 0 0 0-2V7a1 1 0 0 0-2 0v3h-1V7a1 1 0 0 0-2 0v4a1 1 0 0 0 1 1h2zM63 16a1 1 0 0 0-1 1v1h-1v-1a1 1 0 0 0-2 0v4a1 1 0 0 0 2 0v-1h1v1a1 1 0 0 0 2 0v-4a1 1 0 0 0-1-1z" fill="#ffc757" opacity="1" data-original="#ffc757"></path></g><path fill="#b2a6b2" d="M42 45h-6a1 1 0 0 1 0-2h6a1 1 0 0 1 0 2z" opacity="1" data-original="#b2a6b2"></path><path fill="#cc0033" d="M29.152 3.843A20.768 20.768 0 0 0 24 3.2C12.531 3.2 3.2 12.531 3.2 24c0 8.532 5.31 16.226 13.126 19.338l-.077.204 1.694.609.717-1.911C10.76 39.93 5 32.64 5 24 5 13.51 13.51 5 24 5c2.04 0 4.01.32 5.85.92a6.12 6.12 0 0 1 1.341-1.544l-1.865-.719c-.058.062-.118.123-.174.186z" opacity="1" data-original="#cc0033" class=""></path></g></svg>